G04 pcb In1.Cu*
%TF.GenerationSoftware,pcb,pcb-gerber,1.1.0*%
%FSLAX46Y46*%
%MOMM*%
%LPD*%
%ADD10R,2.400000X2.400000*%
%ADD11C,0.400000*%
%ADD12R,2.100000X2.100000*%
%ADD13R,2.500000X2.500000*%
%ADD14C,0.850000*%
%ADD15R,1.600000X1.600000*%
%ADD16R,1.700000X1.700000*%
%ADD17C,0.450000*%
G36*
X300000Y300000D02*
X35700000Y300000D01*
X35700000Y29700000D01*
X300000Y29700000D01*
X300000Y300000D01*
G37*
%LPC*%
D10*
X17800000Y800000D03*
X26200000Y800000D03*
D12*
X35150000Y23998700D03*
D13*
X35150000Y21458700D03*
D12*
X35150000Y18918700D03*
X1173344Y2179674D03*
X1173344Y4719674D03*
X1173344Y7259674D03*
X1173344Y9799674D03*
X1173344Y12339674D03*
X1173344Y14879674D03*
X1173344Y17419674D03*
X1173344Y19959674D03*
X1173344Y22499674D03*
X1173344Y25039674D03*
X11431944Y28708792D03*
X13971944Y28708792D03*
X16511944Y28708792D03*
X19051944Y28708792D03*
X21591944Y28708792D03*
X24131944Y28708792D03*
X26671944Y28708792D03*
X29211944Y28708792D03*
X31751944Y28708792D03*
X34291944Y28708792D03*
D14*
X20200000Y9500000D03*
X21975000Y18100000D03*
X22513900Y17350000D03*
X13486100Y14800000D03*
X13486100Y13950000D03*
X13486100Y15650000D03*
X13486100Y13150000D03*
X15613900Y12700000D03*
X15613900Y13550000D03*
X15613900Y15200000D03*
X15613900Y14400000D03*
X15613900Y15900000D03*
X20600000Y19513900D03*
X19700000Y19513900D03*
X19350000Y17386100D03*
X19150000Y19513900D03*
X16850000Y17386100D03*
X18750000Y17386100D03*
X20200000Y17386100D03*
X18250000Y10486100D03*
X16200000Y12613900D03*
X20300000Y12613900D03*
X17800000Y20500000D03*
X23500000Y12800000D03*
X20193750Y1406250D03*
X18168750Y1968750D03*
X23793750Y1406250D03*
X25818750Y1968750D03*
X10518750Y11643750D03*
X12093750Y16368750D03*
X3318750Y14906250D03*
X7706250Y17381250D03*
X6243750Y17831250D03*
X19406250Y25031250D03*
X18843750Y9281250D03*
X23118750Y18731250D03*
X22893750Y25706250D03*
X22106250Y1968750D03*
X22443750Y2756250D03*
X21206250Y1968750D03*
X21093750Y2756250D03*
X9168750Y15693750D03*
X5006250Y16931250D03*
X13331250Y9168750D03*
X18281250Y12093750D03*
X4668750Y20081250D03*
X7481250Y15356250D03*
X7143750Y14118750D03*
X12656250Y9843750D03*
X13556250Y17943750D03*
X11643750Y19856250D03*
X10856250Y18843750D03*
X17268750Y18506250D03*
X27093846Y7760994D03*
X34088846Y7710994D03*
X32415191Y14411316D03*
X15276239Y23575640D03*
X23885041Y23704474D03*
X26196549Y20663763D03*
X26406410Y23618368D03*
X12305000Y12400000D03*
X20077692Y23415008D03*
X17986677Y24350860D03*
X29506961Y21500263D03*
X12555062Y22822587D03*
X5742097Y12758781D03*
X8609214Y8363254D03*
X8665945Y13520359D03*
X17840512Y17751173D03*
X18824885Y12299618D03*
X15541782Y12319674D03*
%LPD*%
D11*
X16500000Y800000D02*
X17050000Y800000D01*
X18550000Y800000D02*
X19100000Y800000D01*
X17800000Y-500000D02*
X17800000Y50000D01*
X24900000Y800000D02*
X25450000Y800000D01*
X26950000Y800000D02*
X27500000Y800000D01*
X26200000Y-500000D02*
X26200000Y50000D01*
X33800000Y21458700D02*
X34350000Y21458700D01*
X35950000Y21458700D02*
X36500000Y21458700D01*
D15*
X17800000Y800000D03*
X26200000Y800000D03*
D16*
X35150000Y23998700D03*
X35150000Y21458700D03*
X35150000Y18918700D03*
X1173344Y2179674D03*
X1173344Y4719674D03*
X1173344Y7259674D03*
X1173344Y9799674D03*
X1173344Y12339674D03*
X1173344Y14879674D03*
X1173344Y17419674D03*
X1173344Y19959674D03*
X1173344Y22499674D03*
X1173344Y25039674D03*
X11431944Y28708792D03*
X13971944Y28708792D03*
X16511944Y28708792D03*
X19051944Y28708792D03*
X21591944Y28708792D03*
X24131944Y28708792D03*
X26671944Y28708792D03*
X29211944Y28708792D03*
X31751944Y28708792D03*
X34291944Y28708792D03*
D17*
X20200000Y9500000D03*
X21975000Y18100000D03*
X22513900Y17350000D03*
X13486100Y14800000D03*
X13486100Y13950000D03*
X13486100Y15650000D03*
X13486100Y13150000D03*
X15613900Y12700000D03*
X15613900Y13550000D03*
X15613900Y15200000D03*
X15613900Y14400000D03*
X15613900Y15900000D03*
X20600000Y19513900D03*
X19700000Y19513900D03*
X19350000Y17386100D03*
X19150000Y19513900D03*
X16850000Y17386100D03*
X18750000Y17386100D03*
X20200000Y17386100D03*
X18250000Y10486100D03*
X16200000Y12613900D03*
X20300000Y12613900D03*
X17800000Y20500000D03*
X23500000Y12800000D03*
X20193750Y1406250D03*
X18168750Y1968750D03*
X23793750Y1406250D03*
X25818750Y1968750D03*
X10518750Y11643750D03*
X12093750Y16368750D03*
X3318750Y14906250D03*
X7706250Y17381250D03*
X6243750Y17831250D03*
X19406250Y25031250D03*
X18843750Y9281250D03*
X23118750Y18731250D03*
X22893750Y25706250D03*
X22106250Y1968750D03*
X22443750Y2756250D03*
X21206250Y1968750D03*
X21093750Y2756250D03*
X9168750Y15693750D03*
X5006250Y16931250D03*
X13331250Y9168750D03*
X18281250Y12093750D03*
X4668750Y20081250D03*
X7481250Y15356250D03*
X7143750Y14118750D03*
X12656250Y9843750D03*
X13556250Y17943750D03*
X11643750Y19856250D03*
X10856250Y18843750D03*
X17268750Y18506250D03*
X27093846Y7760994D03*
X34088846Y7710994D03*
X32415191Y14411316D03*
X15276239Y23575640D03*
X23885041Y23704474D03*
X26196549Y20663763D03*
X26406410Y23618368D03*
X12305000Y12400000D03*
X20077692Y23415008D03*
X17986677Y24350860D03*
X29506961Y21500263D03*
X12555062Y22822587D03*
X5742097Y12758781D03*
X8609214Y8363254D03*
X8665945Y13520359D03*
X17840512Y17751173D03*
X18824885Y12299618D03*
X15541782Y12319674D03*
M02*
