G04 pcb B.Cu*
%TF.GenerationSoftware,pcb,pcb-gerber,1.1.0*%
%TF.FileFunction,Copper,L2,Bot*%
%TF.FilePolarity,Positive*%
%FSLAX46Y46*%
%MOMM*%
%LPD*%
%ADD10R,2.400000X2.400000*%
%ADD11C,0.400000*%
%ADD12R,2.100000X2.100000*%
%ADD13R,2.500000X2.500000*%
%ADD14C,0.488900*%
%ADD15C,0.850000*%
%ADD16R,1.600000X1.600000*%
%ADD17R,1.700000X1.700000*%
%ADD18C,0.088900*%
%ADD19C,0.450000*%
G36*
X300000Y300000D02*
X35700000Y300000D01*
X35700000Y29700000D01*
X300000Y29700000D01*
X300000Y300000D01*
G37*
%LPC*%
D10*
X17800000Y800000D03*
X26200000Y800000D03*
D12*
X35150000Y23998700D03*
D13*
X35150000Y21458700D03*
D12*
X35150000Y18918700D03*
X1173344Y2179674D03*
X1173344Y4719674D03*
X1173344Y7259674D03*
X1173344Y9799674D03*
X1173344Y12339674D03*
X1173344Y14879674D03*
X1173344Y17419674D03*
X1173344Y19959674D03*
X1173344Y22499674D03*
X1173344Y25039674D03*
X11431944Y28708792D03*
X13971944Y28708792D03*
X16511944Y28708792D03*
X19051944Y28708792D03*
X21591944Y28708792D03*
X24131944Y28708792D03*
X26671944Y28708792D03*
X29211944Y28708792D03*
X31751944Y28708792D03*
X34291944Y28708792D03*
D15*
X20200000Y9500000D03*
X21975000Y18100000D03*
X22513900Y17350000D03*
X13486100Y14800000D03*
X13486100Y13950000D03*
X13486100Y15650000D03*
X13486100Y13150000D03*
X15613900Y12700000D03*
X15613900Y13550000D03*
X15613900Y15200000D03*
X15613900Y14400000D03*
X15613900Y15900000D03*
X20600000Y19513900D03*
X19700000Y19513900D03*
X19350000Y17386100D03*
X19150000Y19513900D03*
X16850000Y17386100D03*
X18750000Y17386100D03*
X20200000Y17386100D03*
X18250000Y10486100D03*
X16200000Y12613900D03*
X20300000Y12613900D03*
X23500000Y12800000D03*
X20193750Y1406250D03*
X18168750Y1968750D03*
X23793750Y1406250D03*
X25818750Y1968750D03*
X10518750Y11643750D03*
X12093750Y16368750D03*
X3318750Y14906250D03*
X7706250Y17381250D03*
X6243750Y17831250D03*
X19406250Y25031250D03*
X18843750Y9281250D03*
X23118750Y18731250D03*
X22893750Y25706250D03*
X22106250Y1968750D03*
X22443750Y2756250D03*
X21206250Y1968750D03*
X21093750Y2756250D03*
X9168750Y15693750D03*
X5006250Y16931250D03*
X13331250Y9168750D03*
X18281250Y12093750D03*
X4668750Y20081250D03*
X7481250Y15356250D03*
X7143750Y14118750D03*
X12656250Y9843750D03*
X13556250Y17943750D03*
X11643750Y19856250D03*
X10856250Y18843750D03*
X17268750Y18506250D03*
X27093846Y7760994D03*
X34088846Y7710994D03*
X32415191Y14411316D03*
X15276239Y23575640D03*
X23885041Y23704474D03*
X26196549Y20663763D03*
X26406410Y23618368D03*
X12305000Y12400000D03*
X17986677Y24350860D03*
X29506961Y21500263D03*
X5742097Y12758781D03*
X8609214Y8363254D03*
X8665945Y13520359D03*
X17840512Y17751173D03*
X15541782Y12319674D03*
D14*
X20193750Y1406250D02*
X20081250Y1518750D01*
X20081250Y1518750D02*
X19968750Y1631250D01*
X19968750Y1631250D02*
X19856250Y1743750D01*
X19856250Y1743750D02*
X19743750Y1856250D01*
X19743750Y1856250D02*
X19631250Y1856250D01*
X19631250Y1856250D02*
X19518750Y1856250D01*
X19518750Y1856250D02*
X19406250Y1856250D01*
X19406250Y1856250D02*
X19293750Y1856250D01*
X19293750Y1856250D02*
X19181250Y1856250D01*
X19181250Y1856250D02*
X19068750Y1856250D01*
X19068750Y1856250D02*
X18956250Y1856250D01*
X18956250Y1856250D02*
X18843750Y1856250D01*
X18843750Y1856250D02*
X18731250Y1856250D01*
X18731250Y1856250D02*
X18618750Y1968750D01*
X18618750Y1968750D02*
X18506250Y1968750D01*
X18506250Y1968750D02*
X18393750Y1968750D01*
X18393750Y1968750D02*
X18281250Y1968750D01*
X18281250Y1968750D02*
X18168750Y1968750D01*
X23793750Y1406250D02*
X23906250Y1518750D01*
X23906250Y1518750D02*
X24018750Y1631250D01*
X24018750Y1631250D02*
X24131250Y1743750D01*
X24131250Y1743750D02*
X24243750Y1856250D01*
X24243750Y1856250D02*
X24356250Y1856250D01*
X24356250Y1856250D02*
X24468750Y1856250D01*
X24468750Y1856250D02*
X24581250Y1856250D01*
X24581250Y1856250D02*
X24693750Y1856250D01*
X24693750Y1856250D02*
X24806250Y1856250D01*
X24806250Y1856250D02*
X24918750Y1856250D01*
X24918750Y1856250D02*
X25031250Y1856250D01*
X25031250Y1856250D02*
X25143750Y1856250D01*
X25143750Y1856250D02*
X25256250Y1856250D01*
X25256250Y1856250D02*
X25368750Y1968750D01*
X25368750Y1968750D02*
X25481250Y1968750D01*
X25481250Y1968750D02*
X25593750Y1968750D01*
X25593750Y1968750D02*
X25706250Y1968750D01*
X25706250Y1968750D02*
X25818750Y1968750D01*
X15581250Y13556250D02*
X15468750Y13556250D01*
X15468750Y13556250D02*
X15356250Y13443750D01*
X15356250Y13443750D02*
X15243750Y13443750D01*
X15243750Y13443750D02*
X15131250Y13331250D01*
X15131250Y13331250D02*
X15018750Y13218750D01*
X15018750Y13218750D02*
X14906250Y13106250D01*
X14906250Y13106250D02*
X14793750Y12993750D01*
X14793750Y12993750D02*
X14681250Y12881250D01*
X14681250Y12881250D02*
X14568750Y12768750D01*
X14568750Y12768750D02*
X14456250Y12656250D01*
X14456250Y12656250D02*
X14343750Y12543750D01*
X14343750Y12543750D02*
X14231250Y12431250D01*
X14231250Y12431250D02*
X14118750Y12318750D01*
X14118750Y12318750D02*
X14006250Y12206250D01*
X14006250Y12206250D02*
X13893750Y12093750D01*
X13893750Y12093750D02*
X13781250Y11981250D01*
X13781250Y11981250D02*
X13668750Y11868750D01*
X13668750Y11868750D02*
X13556250Y11756250D01*
X13556250Y11756250D02*
X13443750Y11756250D01*
X13443750Y11756250D02*
X13331250Y11756250D01*
X13331250Y11756250D02*
X13218750Y11756250D01*
X13218750Y11756250D02*
X13106250Y11756250D01*
X13106250Y11756250D02*
X12993750Y11756250D01*
X12993750Y11756250D02*
X12881250Y11756250D01*
X12881250Y11756250D02*
X12768750Y11756250D01*
X12768750Y11756250D02*
X12656250Y11756250D01*
X12656250Y11756250D02*
X12543750Y11756250D01*
X12543750Y11756250D02*
X12431250Y11756250D01*
X12431250Y11756250D02*
X12318750Y11756250D01*
X12318750Y11756250D02*
X12206250Y11756250D01*
X12206250Y11756250D02*
X12093750Y11756250D01*
X12093750Y11756250D02*
X11981250Y11756250D01*
X11981250Y11756250D02*
X11868750Y11756250D01*
X11868750Y11756250D02*
X11756250Y11756250D01*
X11756250Y11756250D02*
X11643750Y11756250D01*
X11643750Y11756250D02*
X11531250Y11756250D01*
X11531250Y11756250D02*
X11418750Y11756250D01*
X11418750Y11756250D02*
X11306250Y11756250D01*
X11306250Y11756250D02*
X11193750Y11756250D01*
X11193750Y11756250D02*
X11081250Y11756250D01*
X11081250Y11756250D02*
X10968750Y11756250D01*
X10968750Y11756250D02*
X10856250Y11643750D01*
X10856250Y11643750D02*
X10743750Y11643750D01*
X10743750Y11643750D02*
X10631250Y11643750D01*
X10631250Y11643750D02*
X10518750Y11643750D01*
X15581250Y14456250D02*
X15468750Y14456250D01*
X15468750Y14456250D02*
X15356250Y14568750D01*
X15356250Y14568750D02*
X15243750Y14568750D01*
X15243750Y14568750D02*
X15131250Y14681250D01*
X15131250Y14681250D02*
X15018750Y14793750D01*
X15018750Y14793750D02*
X14906250Y14906250D01*
X14906250Y14906250D02*
X14793750Y15018750D01*
X14793750Y15018750D02*
X14681250Y15131250D01*
X14681250Y15131250D02*
X14568750Y15243750D01*
X14568750Y15243750D02*
X14456250Y15356250D01*
X14456250Y15356250D02*
X14343750Y15468750D01*
X14343750Y15468750D02*
X14231250Y15581250D01*
X14231250Y15581250D02*
X14118750Y15693750D01*
X14118750Y15693750D02*
X14118750Y15806250D01*
X14118750Y15806250D02*
X14118750Y15918750D01*
X14118750Y15918750D02*
X14118750Y16031250D01*
X14118750Y16031250D02*
X14006250Y16143750D01*
X14006250Y16143750D02*
X13893750Y16256250D01*
X13893750Y16256250D02*
X13781250Y16368750D01*
X13781250Y16368750D02*
X13668750Y16368750D01*
X13668750Y16368750D02*
X13556250Y16368750D01*
X13556250Y16368750D02*
X13443750Y16368750D01*
X13443750Y16368750D02*
X13331250Y16368750D01*
X13331250Y16368750D02*
X13218750Y16368750D01*
X13218750Y16368750D02*
X13106250Y16368750D01*
X13106250Y16368750D02*
X12993750Y16368750D01*
X12993750Y16368750D02*
X12881250Y16368750D01*
X12881250Y16368750D02*
X12768750Y16368750D01*
X12768750Y16368750D02*
X12656250Y16368750D01*
X12656250Y16368750D02*
X12543750Y16368750D01*
X12543750Y16368750D02*
X12431250Y16368750D01*
X12431250Y16368750D02*
X12318750Y16368750D01*
X12318750Y16368750D02*
X12206250Y16368750D01*
X12206250Y16368750D02*
X12093750Y16368750D01*
X13443750Y14793750D02*
X13331250Y14793750D01*
X13331250Y14793750D02*
X13218750Y14793750D01*
X13218750Y14793750D02*
X13106250Y14793750D01*
X13106250Y14793750D02*
X12993750Y14793750D01*
X12993750Y14793750D02*
X12881250Y14793750D01*
X12881250Y14793750D02*
X12768750Y14793750D01*
X12768750Y14793750D02*
X12656250Y14793750D01*
X12656250Y14793750D02*
X12543750Y14793750D01*
X12543750Y14793750D02*
X12431250Y14793750D01*
X12431250Y14793750D02*
X12318750Y14793750D01*
X12318750Y14793750D02*
X12206250Y14793750D01*
X12206250Y14793750D02*
X12093750Y14793750D01*
X12093750Y14793750D02*
X11981250Y14793750D01*
X11981250Y14793750D02*
X11868750Y14793750D01*
X11868750Y14793750D02*
X11756250Y14793750D01*
X11756250Y14793750D02*
X11643750Y14793750D01*
X11643750Y14793750D02*
X11531250Y14793750D01*
X11531250Y14793750D02*
X11418750Y14793750D01*
X11418750Y14793750D02*
X11306250Y14793750D01*
X11306250Y14793750D02*
X11193750Y14793750D01*
X11193750Y14793750D02*
X11081250Y14793750D01*
X11081250Y14793750D02*
X10968750Y14793750D01*
X10968750Y14793750D02*
X10856250Y14793750D01*
X10856250Y14793750D02*
X10743750Y14793750D01*
X10743750Y14793750D02*
X10631250Y14793750D01*
X10631250Y14793750D02*
X10518750Y14793750D01*
X10518750Y14793750D02*
X10406250Y14793750D01*
X10406250Y14793750D02*
X10293750Y14793750D01*
X10293750Y14793750D02*
X10181250Y14793750D01*
X10181250Y14793750D02*
X10068750Y14793750D01*
X10068750Y14793750D02*
X9956250Y14793750D01*
X9956250Y14793750D02*
X9843750Y14793750D01*
X9843750Y14793750D02*
X9731250Y14793750D01*
X9731250Y14793750D02*
X9618750Y14793750D01*
X9618750Y14793750D02*
X9506250Y14793750D01*
X9506250Y14793750D02*
X9393750Y14793750D01*
X9393750Y14793750D02*
X9281250Y14793750D01*
X9281250Y14793750D02*
X9168750Y14793750D01*
X9168750Y14793750D02*
X9056250Y14793750D01*
X9056250Y14793750D02*
X8943750Y14793750D01*
X8943750Y14793750D02*
X8831250Y14793750D01*
X8831250Y14793750D02*
X8718750Y14793750D01*
X8718750Y14793750D02*
X8606250Y14793750D01*
X8606250Y14793750D02*
X8493750Y14793750D01*
X8493750Y14793750D02*
X8381250Y14793750D01*
X8381250Y14793750D02*
X8268750Y14793750D01*
X8268750Y14793750D02*
X8156250Y14793750D01*
X8156250Y14793750D02*
X8043750Y14793750D01*
X8043750Y14793750D02*
X7931250Y14793750D01*
X7931250Y14793750D02*
X7818750Y14793750D01*
X7818750Y14793750D02*
X7706250Y14793750D01*
X7706250Y14793750D02*
X7593750Y14793750D01*
X7593750Y14793750D02*
X7481250Y14793750D01*
X7481250Y14793750D02*
X7368750Y14793750D01*
X7368750Y14793750D02*
X7256250Y14793750D01*
X7256250Y14793750D02*
X7143750Y14793750D01*
X7143750Y14793750D02*
X7031250Y14793750D01*
X7031250Y14793750D02*
X6918750Y14793750D01*
X6918750Y14793750D02*
X6806250Y14793750D01*
X6806250Y14793750D02*
X6693750Y14793750D01*
X6693750Y14793750D02*
X6581250Y14793750D01*
X6581250Y14793750D02*
X6468750Y14793750D01*
X6468750Y14793750D02*
X6356250Y14793750D01*
X6356250Y14793750D02*
X6243750Y14793750D01*
X6243750Y14793750D02*
X6131250Y14793750D01*
X6131250Y14793750D02*
X6018750Y14793750D01*
X6018750Y14793750D02*
X5906250Y14793750D01*
X5906250Y14793750D02*
X5793750Y14793750D01*
X5793750Y14793750D02*
X5681250Y14793750D01*
X5681250Y14793750D02*
X5568750Y14793750D01*
X5568750Y14793750D02*
X5456250Y14793750D01*
X5456250Y14793750D02*
X5343750Y14793750D01*
X5343750Y14793750D02*
X5231250Y14793750D01*
X5231250Y14793750D02*
X5118750Y14793750D01*
X5118750Y14793750D02*
X5006250Y14793750D01*
X5006250Y14793750D02*
X4893750Y14793750D01*
X4893750Y14793750D02*
X4781250Y14793750D01*
X4781250Y14793750D02*
X4668750Y14793750D01*
X4668750Y14793750D02*
X4556250Y14793750D01*
X4556250Y14793750D02*
X4443750Y14793750D01*
X4443750Y14793750D02*
X4331250Y14793750D01*
X4331250Y14793750D02*
X4218750Y14793750D01*
X4218750Y14793750D02*
X4106250Y14793750D01*
X4106250Y14793750D02*
X3993750Y14793750D01*
X3993750Y14793750D02*
X3881250Y14793750D01*
X3881250Y14793750D02*
X3768750Y14793750D01*
X3768750Y14793750D02*
X3656250Y14793750D01*
X3656250Y14793750D02*
X3543750Y14793750D01*
X3543750Y14793750D02*
X3431250Y14793750D01*
X3431250Y14793750D02*
X3318750Y14906250D01*
X15581250Y15243750D02*
X15468750Y15243750D01*
X15468750Y15243750D02*
X15356250Y15356250D01*
X15356250Y15356250D02*
X15243750Y15356250D01*
X15243750Y15356250D02*
X15131250Y15468750D01*
X15131250Y15468750D02*
X15018750Y15581250D01*
X15018750Y15581250D02*
X14906250Y15693750D01*
X14906250Y15693750D02*
X14793750Y15806250D01*
X14793750Y15806250D02*
X14681250Y15918750D01*
X14681250Y15918750D02*
X14681250Y16031250D01*
X14681250Y16031250D02*
X14681250Y16143750D01*
X14681250Y16143750D02*
X14681250Y16256250D01*
X14681250Y16256250D02*
X14568750Y16368750D01*
X14568750Y16368750D02*
X14456250Y16481250D01*
X14456250Y16481250D02*
X14343750Y16593750D01*
X14343750Y16593750D02*
X14231250Y16706250D01*
X14231250Y16706250D02*
X14118750Y16818750D01*
X14118750Y16818750D02*
X14006250Y16931250D01*
X14006250Y16931250D02*
X13893750Y16931250D01*
X13893750Y16931250D02*
X13781250Y16931250D01*
X13781250Y16931250D02*
X13668750Y16931250D01*
X13668750Y16931250D02*
X13556250Y16931250D01*
X13556250Y16931250D02*
X13443750Y16931250D01*
X13443750Y16931250D02*
X13331250Y16931250D01*
X13331250Y16931250D02*
X13218750Y16931250D01*
X13218750Y16931250D02*
X13106250Y16931250D01*
X13106250Y16931250D02*
X12993750Y16931250D01*
X12993750Y16931250D02*
X12881250Y16931250D01*
X12881250Y16931250D02*
X12768750Y16931250D01*
X12768750Y16931250D02*
X12656250Y16931250D01*
X12656250Y16931250D02*
X12543750Y16931250D01*
X12543750Y16931250D02*
X12431250Y17043750D01*
X12431250Y17043750D02*
X12318750Y17043750D01*
X12318750Y17043750D02*
X12206250Y17043750D01*
X12206250Y17043750D02*
X12093750Y17043750D01*
X12093750Y17043750D02*
X11981250Y17043750D01*
X11981250Y17043750D02*
X11868750Y17043750D01*
X11868750Y17043750D02*
X11756250Y17043750D01*
X11756250Y17043750D02*
X11643750Y17043750D01*
X11643750Y17043750D02*
X11531250Y17043750D01*
X11531250Y17043750D02*
X11418750Y17043750D01*
X11418750Y17043750D02*
X11306250Y17043750D01*
X11306250Y17043750D02*
X11193750Y17043750D01*
X11193750Y17043750D02*
X11081250Y17043750D01*
X11081250Y17043750D02*
X10968750Y17043750D01*
X10968750Y17043750D02*
X10856250Y17043750D01*
X10856250Y17043750D02*
X10743750Y17043750D01*
X10743750Y17043750D02*
X10631250Y17043750D01*
X10631250Y17043750D02*
X10518750Y17043750D01*
X10518750Y17043750D02*
X10406250Y17043750D01*
X10406250Y17043750D02*
X10293750Y17043750D01*
X10293750Y17043750D02*
X10181250Y17043750D01*
X10181250Y17043750D02*
X10068750Y17043750D01*
X10068750Y17043750D02*
X9956250Y17043750D01*
X9956250Y17043750D02*
X9843750Y17043750D01*
X9843750Y17043750D02*
X9731250Y17043750D01*
X9731250Y17043750D02*
X9618750Y17043750D01*
X9618750Y17043750D02*
X9506250Y17043750D01*
X9506250Y17043750D02*
X9393750Y17043750D01*
X9393750Y17043750D02*
X9281250Y17043750D01*
X9281250Y17043750D02*
X9168750Y17043750D01*
X9168750Y17043750D02*
X9056250Y17043750D01*
X9056250Y17043750D02*
X8943750Y17043750D01*
X8943750Y17043750D02*
X8831250Y17043750D01*
X8831250Y17043750D02*
X8718750Y17043750D01*
X8718750Y17043750D02*
X8606250Y17043750D01*
X8606250Y17043750D02*
X8493750Y17043750D01*
X8493750Y17043750D02*
X8381250Y17043750D01*
X8381250Y17043750D02*
X8268750Y17043750D01*
X8268750Y17043750D02*
X8156250Y17043750D01*
X8156250Y17043750D02*
X8043750Y17043750D01*
X8043750Y17043750D02*
X7931250Y17156250D01*
X7931250Y17156250D02*
X7818750Y17268750D01*
X7818750Y17268750D02*
X7706250Y17381250D01*
X13443750Y15693750D02*
X13331250Y15693750D01*
X13331250Y15693750D02*
X13218750Y15693750D01*
X13218750Y15693750D02*
X13106250Y15693750D01*
X13106250Y15693750D02*
X12993750Y15693750D01*
X12993750Y15693750D02*
X12881250Y15693750D01*
X12881250Y15693750D02*
X12768750Y15693750D01*
X12768750Y15693750D02*
X12656250Y15693750D01*
X12656250Y15693750D02*
X12543750Y15693750D01*
X12543750Y15693750D02*
X12431250Y15693750D01*
X12431250Y15693750D02*
X12318750Y15693750D01*
X12318750Y15693750D02*
X12206250Y15693750D01*
X12206250Y15693750D02*
X12093750Y15693750D01*
X12093750Y15693750D02*
X11981250Y15693750D01*
X11981250Y15693750D02*
X11868750Y15693750D01*
X11868750Y15693750D02*
X11756250Y15693750D01*
X11756250Y15693750D02*
X11643750Y15693750D01*
X11643750Y15693750D02*
X11531250Y15693750D01*
X11531250Y15693750D02*
X11418750Y15693750D01*
X11418750Y15693750D02*
X11306250Y15693750D01*
X11306250Y15693750D02*
X11193750Y15693750D01*
X11193750Y15693750D02*
X11081250Y15693750D01*
X11081250Y15693750D02*
X10968750Y15693750D01*
X10968750Y15693750D02*
X10856250Y15693750D01*
X10856250Y15693750D02*
X10743750Y15693750D01*
X10743750Y15693750D02*
X10631250Y15693750D01*
X10631250Y15693750D02*
X10518750Y15693750D01*
X10518750Y15693750D02*
X10406250Y15806250D01*
X10406250Y15806250D02*
X10293750Y15806250D01*
X10293750Y15806250D02*
X10181250Y15918750D01*
X10181250Y15918750D02*
X10068750Y15918750D01*
X10068750Y15918750D02*
X9956250Y16031250D01*
X9956250Y16031250D02*
X9843750Y16031250D01*
X9843750Y16031250D02*
X9731250Y16031250D01*
X9731250Y16031250D02*
X9618750Y16143750D01*
X9618750Y16143750D02*
X9506250Y16143750D01*
X9506250Y16143750D02*
X9393750Y16256250D01*
X9393750Y16256250D02*
X9281250Y16256250D01*
X9281250Y16256250D02*
X9168750Y16368750D01*
X9168750Y16368750D02*
X9056250Y16368750D01*
X9056250Y16368750D02*
X8943750Y16481250D01*
X8943750Y16481250D02*
X8831250Y16481250D01*
X8831250Y16481250D02*
X8718750Y16481250D01*
X8718750Y16481250D02*
X8606250Y16481250D01*
X8606250Y16481250D02*
X8493750Y16481250D01*
X8493750Y16481250D02*
X8381250Y16481250D01*
X8381250Y16481250D02*
X8268750Y16481250D01*
X8268750Y16481250D02*
X8156250Y16481250D01*
X8156250Y16481250D02*
X8043750Y16481250D01*
X8043750Y16481250D02*
X7931250Y16481250D01*
X7931250Y16481250D02*
X7818750Y16481250D01*
X7818750Y16481250D02*
X7706250Y16593750D01*
X7706250Y16593750D02*
X7593750Y16593750D01*
X7593750Y16593750D02*
X7481250Y16593750D01*
X7481250Y16593750D02*
X7368750Y16706250D01*
X7368750Y16706250D02*
X7256250Y16818750D01*
X7256250Y16818750D02*
X7143750Y16931250D01*
X7143750Y16931250D02*
X7031250Y17043750D01*
X7031250Y17043750D02*
X6918750Y17156250D01*
X6918750Y17156250D02*
X6806250Y17268750D01*
X6806250Y17268750D02*
X6693750Y17381250D01*
X6693750Y17381250D02*
X6581250Y17493750D01*
X6581250Y17493750D02*
X6468750Y17606250D01*
X6468750Y17606250D02*
X6356250Y17718750D01*
X6356250Y17718750D02*
X6243750Y17831250D01*
X20643750Y19518750D02*
X20643750Y19631250D01*
X20643750Y19631250D02*
X20531250Y19743750D01*
X20531250Y19743750D02*
X20531250Y19856250D01*
X20531250Y19856250D02*
X20418750Y19968750D01*
X20418750Y19968750D02*
X20306250Y20081250D01*
X20306250Y20081250D02*
X20193750Y20193750D01*
X20193750Y20193750D02*
X20081250Y20306250D01*
X20081250Y20306250D02*
X19968750Y20418750D01*
X19968750Y20418750D02*
X19856250Y20531250D01*
X19856250Y20531250D02*
X19743750Y20643750D01*
X19743750Y20643750D02*
X19631250Y20756250D01*
X19631250Y20756250D02*
X19631250Y20868750D01*
X19631250Y20868750D02*
X19631250Y20981250D01*
X19631250Y20981250D02*
X19631250Y21093750D01*
X19631250Y21093750D02*
X19631250Y21206250D01*
X19631250Y21206250D02*
X19631250Y21318750D01*
X19631250Y21318750D02*
X19631250Y21431250D01*
X19631250Y21431250D02*
X19631250Y21543750D01*
X19631250Y21543750D02*
X19631250Y21656250D01*
X19631250Y21656250D02*
X19631250Y21768750D01*
X19631250Y21768750D02*
X19631250Y21881250D01*
X19631250Y21881250D02*
X19518750Y21993750D01*
X19518750Y21993750D02*
X19518750Y22106250D01*
X19518750Y22106250D02*
X19406250Y22218750D01*
X19406250Y22218750D02*
X19406250Y22331250D01*
X19406250Y22331250D02*
X19406250Y22443750D01*
X19406250Y22443750D02*
X19406250Y22556250D01*
X19406250Y22556250D02*
X19406250Y22668750D01*
X19406250Y22668750D02*
X19406250Y22781250D01*
X19406250Y22781250D02*
X19406250Y22893750D01*
X19406250Y22893750D02*
X19406250Y23006250D01*
X19406250Y23006250D02*
X19406250Y23118750D01*
X19406250Y23118750D02*
X19406250Y23231250D01*
X19406250Y23231250D02*
X19406250Y23343750D01*
X19406250Y23343750D02*
X19406250Y23456250D01*
X19406250Y23456250D02*
X19406250Y23568750D01*
X19406250Y23568750D02*
X19406250Y23681250D01*
X19406250Y23681250D02*
X19406250Y23793750D01*
X19406250Y23793750D02*
X19406250Y23906250D01*
X19406250Y23906250D02*
X19406250Y24018750D01*
X19406250Y24018750D02*
X19406250Y24131250D01*
X19406250Y24131250D02*
X19406250Y24243750D01*
X19406250Y24243750D02*
X19406250Y24356250D01*
X19406250Y24356250D02*
X19406250Y24468750D01*
X19406250Y24468750D02*
X19406250Y24581250D01*
X19406250Y24581250D02*
X19406250Y24693750D01*
X19406250Y24693750D02*
X19406250Y24806250D01*
X19406250Y24806250D02*
X19406250Y24918750D01*
X19406250Y24918750D02*
X19406250Y25031250D01*
X18281250Y10518750D02*
X18281250Y10406250D01*
X18281250Y10406250D02*
X18281250Y10293750D01*
X18281250Y10293750D02*
X18281250Y10181250D01*
X18281250Y10181250D02*
X18281250Y10068750D01*
X18281250Y10068750D02*
X18281250Y9956250D01*
X18281250Y9956250D02*
X18281250Y9843750D01*
X18281250Y9843750D02*
X18393750Y9731250D01*
X18393750Y9731250D02*
X18506250Y9618750D01*
X18506250Y9618750D02*
X18618750Y9506250D01*
X18618750Y9506250D02*
X18731250Y9393750D01*
X18731250Y9393750D02*
X18843750Y9281250D01*
X18731250Y17381250D02*
X18843750Y17493750D01*
X18843750Y17493750D02*
X18843750Y17606250D01*
X18843750Y17606250D02*
X18843750Y17718750D01*
X18843750Y17718750D02*
X18843750Y17831250D01*
X18843750Y17831250D02*
X18956250Y17943750D01*
X18956250Y17943750D02*
X19068750Y18056250D01*
X19068750Y18056250D02*
X19181250Y18056250D01*
X19181250Y18056250D02*
X19293750Y18168750D01*
X19293750Y18168750D02*
X19406250Y18281250D01*
X19406250Y18281250D02*
X19518750Y18393750D01*
X19518750Y18393750D02*
X19631250Y18506250D01*
X19631250Y18506250D02*
X19743750Y18618750D01*
X19743750Y18618750D02*
X19856250Y18618750D01*
X19856250Y18618750D02*
X19968750Y18618750D01*
X19968750Y18618750D02*
X20081250Y18618750D01*
X20081250Y18618750D02*
X20193750Y18618750D01*
X20193750Y18618750D02*
X20306250Y18618750D01*
X20306250Y18618750D02*
X20418750Y18618750D01*
X20418750Y18618750D02*
X20531250Y18618750D01*
X20531250Y18618750D02*
X20643750Y18618750D01*
X20643750Y18618750D02*
X20756250Y18618750D01*
X20756250Y18618750D02*
X20868750Y18618750D01*
X20868750Y18618750D02*
X20981250Y18618750D01*
X20981250Y18618750D02*
X21093750Y18618750D01*
X21093750Y18618750D02*
X21206250Y18731250D01*
X21206250Y18731250D02*
X21318750Y18731250D01*
X21318750Y18731250D02*
X21431250Y18731250D01*
X21431250Y18731250D02*
X21543750Y18731250D01*
X21543750Y18731250D02*
X21656250Y18731250D01*
X21656250Y18731250D02*
X21768750Y18731250D01*
X21768750Y18731250D02*
X21881250Y18731250D01*
X21881250Y18731250D02*
X21993750Y18731250D01*
X21993750Y18731250D02*
X22106250Y18731250D01*
X22106250Y18731250D02*
X22218750Y18731250D01*
X22218750Y18731250D02*
X22331250Y18731250D01*
X22331250Y18731250D02*
X22443750Y18731250D01*
X22443750Y18731250D02*
X22556250Y18731250D01*
X22556250Y18731250D02*
X22668750Y18731250D01*
X22668750Y18731250D02*
X22781250Y18731250D01*
X22781250Y18731250D02*
X22893750Y18731250D01*
X22893750Y18731250D02*
X23006250Y18731250D01*
X23006250Y18731250D02*
X23118750Y18731250D01*
X19181250Y19518750D02*
X19068750Y19406250D01*
X19068750Y19406250D02*
X18956250Y19293750D01*
X18956250Y19293750D02*
X18843750Y19181250D01*
X18843750Y19181250D02*
X18731250Y19181250D01*
X18731250Y19181250D02*
X18618750Y19181250D01*
X18618750Y19181250D02*
X18506250Y19181250D01*
X18506250Y19181250D02*
X18393750Y19181250D01*
X18393750Y19181250D02*
X18281250Y19181250D01*
X18281250Y19181250D02*
X18168750Y19181250D01*
X18168750Y19181250D02*
X18056250Y19181250D01*
X18056250Y19181250D02*
X17943750Y19181250D01*
X17943750Y19181250D02*
X17831250Y19181250D01*
X17831250Y19181250D02*
X17718750Y19181250D01*
X17718750Y19181250D02*
X17606250Y19181250D01*
X17606250Y19181250D02*
X17493750Y19181250D01*
X17493750Y19181250D02*
X17381250Y19293750D01*
X17381250Y19293750D02*
X17268750Y19406250D01*
X17268750Y19406250D02*
X17156250Y19518750D01*
X17156250Y19518750D02*
X17156250Y19631250D01*
X17156250Y19631250D02*
X17156250Y19743750D01*
X17156250Y19743750D02*
X17156250Y19856250D01*
X17156250Y19856250D02*
X17156250Y19968750D01*
X17156250Y19968750D02*
X17156250Y20081250D01*
X17156250Y20081250D02*
X17156250Y20193750D01*
X17156250Y20193750D02*
X17156250Y20306250D01*
X17156250Y20306250D02*
X17156250Y20418750D01*
X17156250Y20418750D02*
X17156250Y20531250D01*
X17156250Y20531250D02*
X17156250Y20643750D01*
X17156250Y20643750D02*
X17156250Y20756250D01*
X17156250Y20756250D02*
X17156250Y20868750D01*
X17156250Y20868750D02*
X17156250Y20981250D01*
X17156250Y20981250D02*
X17156250Y21093750D01*
X17156250Y21093750D02*
X17156250Y21206250D01*
X17156250Y21206250D02*
X17156250Y21318750D01*
X17156250Y21318750D02*
X17156250Y21431250D01*
X17156250Y21431250D02*
X17156250Y21543750D01*
X17156250Y21543750D02*
X17156250Y21656250D01*
X17156250Y21656250D02*
X17156250Y21768750D01*
X17156250Y21768750D02*
X17156250Y21881250D01*
X17156250Y21881250D02*
X17156250Y21993750D01*
X17156250Y21993750D02*
X17156250Y22106250D01*
X17156250Y22106250D02*
X17156250Y22218750D01*
X17156250Y22218750D02*
X17156250Y22331250D01*
X17156250Y22331250D02*
X17156250Y22443750D01*
X17156250Y22443750D02*
X17156250Y22556250D01*
X17156250Y22556250D02*
X17156250Y22668750D01*
X17156250Y22668750D02*
X17156250Y22781250D01*
X17156250Y22781250D02*
X17156250Y22893750D01*
X17156250Y22893750D02*
X17156250Y23006250D01*
X17156250Y23006250D02*
X17156250Y23118750D01*
X17156250Y23118750D02*
X17156250Y23231250D01*
X17156250Y23231250D02*
X17156250Y23343750D01*
X17156250Y23343750D02*
X17156250Y23456250D01*
X17156250Y23456250D02*
X17156250Y23568750D01*
X17156250Y23568750D02*
X17268750Y23681250D01*
X17268750Y23681250D02*
X17381250Y23793750D01*
X17381250Y23793750D02*
X17493750Y23906250D01*
X17493750Y23906250D02*
X17606250Y24018750D01*
X17606250Y24018750D02*
X17718750Y24131250D01*
X17718750Y24131250D02*
X17831250Y24243750D01*
X17831250Y24243750D02*
X17943750Y24356250D01*
X17943750Y24356250D02*
X18056250Y24468750D01*
X18056250Y24468750D02*
X18168750Y24581250D01*
X18168750Y24581250D02*
X18281250Y24693750D01*
X18281250Y24693750D02*
X18393750Y24806250D01*
X18393750Y24806250D02*
X18506250Y24918750D01*
X18506250Y24918750D02*
X18618750Y25031250D01*
X18618750Y25031250D02*
X18731250Y25143750D01*
X18731250Y25143750D02*
X18731250Y25256250D01*
X18731250Y25256250D02*
X18731250Y25368750D01*
X18731250Y25368750D02*
X18843750Y25481250D01*
X18843750Y25481250D02*
X18956250Y25593750D01*
X18956250Y25593750D02*
X19068750Y25706250D01*
X19068750Y25706250D02*
X19181250Y25706250D01*
X19181250Y25706250D02*
X19293750Y25706250D01*
X19293750Y25706250D02*
X19406250Y25706250D01*
X19406250Y25706250D02*
X19518750Y25706250D01*
X19518750Y25706250D02*
X19631250Y25706250D01*
X19631250Y25706250D02*
X19743750Y25706250D01*
X19743750Y25706250D02*
X19856250Y25706250D01*
X19856250Y25706250D02*
X19968750Y25706250D01*
X19968750Y25706250D02*
X20081250Y25706250D01*
X20081250Y25706250D02*
X20193750Y25706250D01*
X20193750Y25706250D02*
X20306250Y25706250D01*
X20306250Y25706250D02*
X20418750Y25706250D01*
X20418750Y25706250D02*
X20531250Y25706250D01*
X20531250Y25706250D02*
X20643750Y25706250D01*
X20643750Y25706250D02*
X20756250Y25706250D01*
X20756250Y25706250D02*
X20868750Y25706250D01*
X20868750Y25706250D02*
X20981250Y25706250D01*
X20981250Y25706250D02*
X21093750Y25706250D01*
X21093750Y25706250D02*
X21206250Y25706250D01*
X21206250Y25706250D02*
X21318750Y25706250D01*
X21318750Y25706250D02*
X21431250Y25706250D01*
X21431250Y25706250D02*
X21543750Y25706250D01*
X21543750Y25706250D02*
X21656250Y25706250D01*
X21656250Y25706250D02*
X21768750Y25706250D01*
X21768750Y25706250D02*
X21881250Y25706250D01*
X21881250Y25706250D02*
X21993750Y25706250D01*
X21993750Y25706250D02*
X22106250Y25706250D01*
X22106250Y25706250D02*
X22218750Y25706250D01*
X22218750Y25706250D02*
X22331250Y25706250D01*
X22331250Y25706250D02*
X22443750Y25706250D01*
X22443750Y25706250D02*
X22556250Y25706250D01*
X22556250Y25706250D02*
X22668750Y25706250D01*
X22668750Y25706250D02*
X22781250Y25706250D01*
X22781250Y25706250D02*
X22893750Y25706250D01*
X22106250Y1968750D02*
X22218750Y2081250D01*
X22218750Y2081250D02*
X22218750Y2193750D01*
X22218750Y2193750D02*
X22218750Y2306250D01*
X22218750Y2306250D02*
X22218750Y2418750D01*
X22218750Y2418750D02*
X22331250Y2531250D01*
X22331250Y2531250D02*
X22331250Y2643750D01*
X22331250Y2643750D02*
X22443750Y2756250D01*
X21206250Y1968750D02*
X21093750Y2081250D01*
X21093750Y2081250D02*
X21093750Y2193750D01*
X21093750Y2193750D02*
X21093750Y2306250D01*
X21093750Y2306250D02*
X21093750Y2418750D01*
X21093750Y2418750D02*
X21093750Y2531250D01*
X21093750Y2531250D02*
X21093750Y2643750D01*
X21093750Y2643750D02*
X21093750Y2756250D01*
X16818750Y17381250D02*
X16706250Y17381250D01*
X16706250Y17381250D02*
X16593750Y17381250D01*
X16593750Y17381250D02*
X16481250Y17381250D01*
X16481250Y17381250D02*
X16368750Y17381250D01*
X16368750Y17381250D02*
X16256250Y17381250D01*
X16256250Y17381250D02*
X16143750Y17381250D01*
X16143750Y17381250D02*
X16031250Y17381250D01*
X16031250Y17381250D02*
X15918750Y17381250D01*
X15918750Y17381250D02*
X15806250Y17381250D01*
X15806250Y17381250D02*
X15693750Y17381250D01*
X15693750Y17381250D02*
X15581250Y17381250D01*
X15581250Y17381250D02*
X15468750Y17381250D01*
X15468750Y17381250D02*
X15356250Y17381250D01*
X15356250Y17381250D02*
X15243750Y17381250D01*
X15243750Y17381250D02*
X15131250Y17381250D01*
X15131250Y17381250D02*
X15018750Y17381250D01*
X15018750Y17381250D02*
X14906250Y17381250D01*
X14906250Y17381250D02*
X14793750Y17381250D01*
X14793750Y17381250D02*
X14681250Y17381250D01*
X14681250Y17381250D02*
X14568750Y17381250D01*
X14568750Y17381250D02*
X14456250Y17381250D01*
X14456250Y17381250D02*
X14343750Y17381250D01*
X14343750Y17381250D02*
X14231250Y17493750D01*
X14231250Y17493750D02*
X14118750Y17493750D01*
X14118750Y17493750D02*
X14006250Y17493750D01*
X14006250Y17493750D02*
X13893750Y17493750D01*
X13893750Y17493750D02*
X13781250Y17493750D01*
X13781250Y17493750D02*
X13668750Y17493750D01*
X13668750Y17493750D02*
X13556250Y17493750D01*
X13556250Y17493750D02*
X13443750Y17493750D01*
X13443750Y17493750D02*
X13331250Y17493750D01*
X13331250Y17493750D02*
X13218750Y17493750D01*
X13218750Y17493750D02*
X13106250Y17493750D01*
X13106250Y17493750D02*
X12993750Y17493750D01*
X12993750Y17493750D02*
X12881250Y17493750D01*
X12881250Y17493750D02*
X12768750Y17493750D01*
X12768750Y17493750D02*
X12656250Y17606250D01*
X12656250Y17606250D02*
X12543750Y17606250D01*
X12543750Y17606250D02*
X12431250Y17606250D01*
X12431250Y17606250D02*
X12318750Y17606250D01*
X12318750Y17606250D02*
X12206250Y17606250D01*
X12206250Y17606250D02*
X12093750Y17606250D01*
X12093750Y17606250D02*
X11981250Y17606250D01*
X11981250Y17606250D02*
X11868750Y17606250D01*
X11868750Y17606250D02*
X11756250Y17606250D01*
X11756250Y17606250D02*
X11643750Y17606250D01*
X11643750Y17606250D02*
X11531250Y17606250D01*
X11531250Y17606250D02*
X11418750Y17606250D01*
X11418750Y17606250D02*
X11306250Y17606250D01*
X11306250Y17606250D02*
X11193750Y17606250D01*
X11193750Y17606250D02*
X11081250Y17606250D01*
X11081250Y17606250D02*
X10968750Y17606250D01*
X10968750Y17606250D02*
X10856250Y17606250D01*
X10856250Y17606250D02*
X10743750Y17606250D01*
X10743750Y17606250D02*
X10631250Y17606250D01*
X10631250Y17606250D02*
X10518750Y17606250D01*
X10518750Y17606250D02*
X10406250Y17606250D01*
X10406250Y17606250D02*
X10293750Y17606250D01*
X10293750Y17606250D02*
X10181250Y17606250D01*
X10181250Y17606250D02*
X10068750Y17606250D01*
X10068750Y17606250D02*
X9956250Y17606250D01*
X9956250Y17606250D02*
X9843750Y17606250D01*
X9843750Y17606250D02*
X9731250Y17606250D01*
X9731250Y17606250D02*
X9618750Y17606250D01*
X9618750Y17606250D02*
X9506250Y17606250D01*
X9506250Y17606250D02*
X9393750Y17606250D01*
X9393750Y17606250D02*
X9281250Y17606250D01*
X9281250Y17606250D02*
X9168750Y17606250D01*
X9168750Y17606250D02*
X9056250Y17606250D01*
X9056250Y17606250D02*
X8943750Y17606250D01*
X8943750Y17606250D02*
X8831250Y17606250D01*
X8831250Y17606250D02*
X8718750Y17606250D01*
X8718750Y17606250D02*
X8606250Y17606250D01*
X8606250Y17606250D02*
X8493750Y17606250D01*
X8493750Y17606250D02*
X8381250Y17718750D01*
X8381250Y17718750D02*
X8268750Y17831250D01*
X8268750Y17831250D02*
X8156250Y17943750D01*
X8156250Y17943750D02*
X8043750Y18056250D01*
X8043750Y18056250D02*
X7931250Y18056250D01*
X7931250Y18056250D02*
X7818750Y18056250D01*
X7818750Y18056250D02*
X7706250Y18056250D01*
X7706250Y18056250D02*
X7593750Y18056250D01*
X7593750Y18056250D02*
X7481250Y18056250D01*
X7481250Y18056250D02*
X7368750Y18056250D01*
X7368750Y18056250D02*
X7256250Y18056250D01*
X7256250Y18056250D02*
X7143750Y18056250D01*
X7143750Y18056250D02*
X7031250Y18056250D01*
X7031250Y18056250D02*
X6918750Y18168750D01*
X6918750Y18168750D02*
X6806250Y18281250D01*
X6806250Y18281250D02*
X6693750Y18393750D01*
X6693750Y18393750D02*
X6581250Y18506250D01*
X6581250Y18506250D02*
X6468750Y18506250D01*
X6468750Y18506250D02*
X6356250Y18506250D01*
X6356250Y18506250D02*
X6243750Y18506250D01*
X6243750Y18506250D02*
X6131250Y18506250D01*
X6131250Y18506250D02*
X6018750Y18506250D01*
X6018750Y18506250D02*
X5906250Y18506250D01*
X5906250Y18506250D02*
X5793750Y18393750D01*
X5793750Y18393750D02*
X5681250Y18281250D01*
X5681250Y18281250D02*
X5568750Y18168750D01*
X5568750Y18168750D02*
X5568750Y18056250D01*
X5568750Y18056250D02*
X5568750Y17943750D01*
X5568750Y17943750D02*
X5568750Y17831250D01*
X5568750Y17831250D02*
X5568750Y17718750D01*
X5568750Y17718750D02*
X5568750Y17606250D01*
X5568750Y17606250D02*
X5568750Y17493750D01*
X5568750Y17493750D02*
X5681250Y17381250D01*
X5681250Y17381250D02*
X5793750Y17268750D01*
X5793750Y17268750D02*
X5906250Y17156250D01*
X5906250Y17156250D02*
X6018750Y17156250D01*
X6018750Y17156250D02*
X6131250Y17156250D01*
X6131250Y17156250D02*
X6243750Y17043750D01*
X6243750Y17043750D02*
X6356250Y16931250D01*
X6356250Y16931250D02*
X6468750Y16818750D01*
X6468750Y16818750D02*
X6581250Y16706250D01*
X6581250Y16706250D02*
X6693750Y16593750D01*
X6693750Y16593750D02*
X6806250Y16481250D01*
X6806250Y16481250D02*
X6918750Y16368750D01*
X6918750Y16368750D02*
X7031250Y16256250D01*
X7031250Y16256250D02*
X7143750Y16143750D01*
X7143750Y16143750D02*
X7256250Y16031250D01*
X7256250Y16031250D02*
X7368750Y16031250D01*
X7368750Y16031250D02*
X7481250Y16031250D01*
X7481250Y16031250D02*
X7593750Y15918750D01*
X7593750Y15918750D02*
X7706250Y15918750D01*
X7706250Y15918750D02*
X7818750Y15918750D01*
X7818750Y15918750D02*
X7931250Y15918750D01*
X7931250Y15918750D02*
X8043750Y15918750D01*
X8043750Y15918750D02*
X8156250Y15918750D01*
X8156250Y15918750D02*
X8268750Y15918750D01*
X8268750Y15918750D02*
X8381250Y15918750D01*
X8381250Y15918750D02*
X8493750Y15918750D01*
X8493750Y15918750D02*
X8606250Y15918750D01*
X8606250Y15918750D02*
X8718750Y15918750D01*
X8718750Y15918750D02*
X8831250Y15806250D01*
X8831250Y15806250D02*
X8943750Y15806250D01*
X8943750Y15806250D02*
X9056250Y15693750D01*
X9056250Y15693750D02*
X9168750Y15693750D01*
X5568750Y17493750D02*
X5456250Y17381250D01*
X5456250Y17381250D02*
X5343750Y17268750D01*
X5343750Y17268750D02*
X5231250Y17156250D01*
X5231250Y17156250D02*
X5118750Y17043750D01*
X5118750Y17043750D02*
X5006250Y16931250D01*
X13331250Y9168750D02*
X13443750Y9281250D01*
X13443750Y9281250D02*
X13556250Y9393750D01*
X13556250Y9393750D02*
X13668750Y9506250D01*
X13668750Y9506250D02*
X13781250Y9618750D01*
X13781250Y9618750D02*
X13893750Y9731250D01*
X13893750Y9731250D02*
X14006250Y9843750D01*
X14006250Y9843750D02*
X14118750Y9956250D01*
X14118750Y9956250D02*
X14231250Y10068750D01*
X14231250Y10068750D02*
X14343750Y10181250D01*
X14343750Y10181250D02*
X14456250Y10293750D01*
X14456250Y10293750D02*
X14568750Y10406250D01*
X14568750Y10406250D02*
X14681250Y10518750D01*
X14681250Y10518750D02*
X14793750Y10631250D01*
X14793750Y10631250D02*
X14906250Y10743750D01*
X14906250Y10743750D02*
X15018750Y10856250D01*
X15018750Y10856250D02*
X15131250Y10968750D01*
X15131250Y10968750D02*
X15243750Y11081250D01*
X15243750Y11081250D02*
X15356250Y11193750D01*
X15356250Y11193750D02*
X15468750Y11306250D01*
X15468750Y11306250D02*
X15581250Y11418750D01*
X15581250Y11418750D02*
X15693750Y11531250D01*
X15693750Y11531250D02*
X15806250Y11643750D01*
X15806250Y11643750D02*
X15918750Y11756250D01*
X15918750Y11756250D02*
X16031250Y11868750D01*
X16031250Y11868750D02*
X16143750Y11981250D01*
X16143750Y11981250D02*
X16256250Y11981250D01*
X16256250Y11981250D02*
X16368750Y11981250D01*
X16368750Y11981250D02*
X16481250Y11981250D01*
X16481250Y11981250D02*
X16593750Y11981250D01*
X16593750Y11981250D02*
X16706250Y11981250D01*
X16706250Y11981250D02*
X16818750Y11981250D01*
X16818750Y11981250D02*
X16931250Y11981250D01*
X16931250Y11981250D02*
X17043750Y11981250D01*
X17043750Y11981250D02*
X17156250Y11981250D01*
X17156250Y11981250D02*
X17268750Y11981250D01*
X17268750Y11981250D02*
X17381250Y11981250D01*
X17381250Y11981250D02*
X17493750Y11981250D01*
X17493750Y11981250D02*
X17606250Y11981250D01*
X17606250Y11981250D02*
X17718750Y11981250D01*
X17718750Y11981250D02*
X17831250Y11981250D01*
X17831250Y11981250D02*
X17943750Y11981250D01*
X17943750Y11981250D02*
X18056250Y11981250D01*
X18056250Y11981250D02*
X18168750Y11981250D01*
X18168750Y11981250D02*
X18281250Y12093750D01*
X4668750Y20081250D02*
X4668750Y19968750D01*
X4668750Y19968750D02*
X4668750Y19856250D01*
X4668750Y19856250D02*
X4668750Y19743750D01*
X4668750Y19743750D02*
X4668750Y19631250D01*
X4668750Y19631250D02*
X4668750Y19518750D01*
X4668750Y19518750D02*
X4668750Y19406250D01*
X4668750Y19406250D02*
X4668750Y19293750D01*
X4668750Y19293750D02*
X4556250Y19181250D01*
X4556250Y19181250D02*
X4556250Y19068750D01*
X4556250Y19068750D02*
X4556250Y18956250D01*
X4556250Y18956250D02*
X4556250Y18843750D01*
X4556250Y18843750D02*
X4556250Y18731250D01*
X4556250Y18731250D02*
X4556250Y18618750D01*
X4556250Y18618750D02*
X4556250Y18506250D01*
X4556250Y18506250D02*
X4556250Y18393750D01*
X4556250Y18393750D02*
X4556250Y18281250D01*
X4556250Y18281250D02*
X4556250Y18168750D01*
X4556250Y18168750D02*
X4556250Y18056250D01*
X4556250Y18056250D02*
X4556250Y17943750D01*
X4556250Y17943750D02*
X4556250Y17831250D01*
X4556250Y17831250D02*
X4556250Y17718750D01*
X4556250Y17718750D02*
X4556250Y17606250D01*
X4556250Y17606250D02*
X4556250Y17493750D01*
X4556250Y17493750D02*
X4443750Y17381250D01*
X4443750Y17381250D02*
X4331250Y17268750D01*
X4331250Y17268750D02*
X4331250Y17156250D01*
X4331250Y17156250D02*
X4331250Y17043750D01*
X4331250Y17043750D02*
X4331250Y16931250D01*
X4331250Y16931250D02*
X4331250Y16818750D01*
X4331250Y16818750D02*
X4331250Y16706250D01*
X4331250Y16706250D02*
X4331250Y16593750D01*
X4331250Y16593750D02*
X4443750Y16481250D01*
X4443750Y16481250D02*
X4556250Y16368750D01*
X4556250Y16368750D02*
X4668750Y16256250D01*
X4668750Y16256250D02*
X4781250Y16143750D01*
X4781250Y16143750D02*
X4893750Y16031250D01*
X4893750Y16031250D02*
X5006250Y15918750D01*
X5006250Y15918750D02*
X5118750Y15806250D01*
X5118750Y15806250D02*
X5231250Y15693750D01*
X5231250Y15693750D02*
X5343750Y15581250D01*
X5343750Y15581250D02*
X5456250Y15468750D01*
X5456250Y15468750D02*
X5568750Y15356250D01*
X5568750Y15356250D02*
X5681250Y15356250D01*
X5681250Y15356250D02*
X5793750Y15356250D01*
X5793750Y15356250D02*
X5906250Y15356250D01*
X5906250Y15356250D02*
X6018750Y15356250D01*
X6018750Y15356250D02*
X6131250Y15356250D01*
X6131250Y15356250D02*
X6243750Y15356250D01*
X6243750Y15356250D02*
X6356250Y15356250D01*
X6356250Y15356250D02*
X6468750Y15356250D01*
X6468750Y15356250D02*
X6581250Y15356250D01*
X6581250Y15356250D02*
X6693750Y15356250D01*
X6693750Y15356250D02*
X6806250Y15356250D01*
X6806250Y15356250D02*
X6918750Y15356250D01*
X6918750Y15356250D02*
X7031250Y15356250D01*
X7031250Y15356250D02*
X7143750Y15356250D01*
X7143750Y15356250D02*
X7256250Y15356250D01*
X7256250Y15356250D02*
X7368750Y15356250D01*
X7368750Y15356250D02*
X7481250Y15356250D01*
X7143750Y14118750D02*
X7256250Y14006250D01*
X7256250Y14006250D02*
X7368750Y13893750D01*
X7368750Y13893750D02*
X7481250Y13781250D01*
X7481250Y13781250D02*
X7593750Y13668750D01*
X7593750Y13668750D02*
X7706250Y13556250D01*
X7706250Y13556250D02*
X7818750Y13443750D01*
X7818750Y13443750D02*
X7931250Y13331250D01*
X7931250Y13331250D02*
X8043750Y13218750D01*
X8043750Y13218750D02*
X8156250Y13106250D01*
X8156250Y13106250D02*
X8268750Y12993750D01*
X8268750Y12993750D02*
X8381250Y12881250D01*
X8381250Y12881250D02*
X8493750Y12768750D01*
X8493750Y12768750D02*
X8606250Y12656250D01*
X8606250Y12656250D02*
X8718750Y12543750D01*
X8718750Y12543750D02*
X8831250Y12431250D01*
X8831250Y12431250D02*
X8943750Y12318750D01*
X8943750Y12318750D02*
X9056250Y12206250D01*
X9056250Y12206250D02*
X9168750Y12093750D01*
X9168750Y12093750D02*
X9281250Y11981250D01*
X9281250Y11981250D02*
X9393750Y11868750D01*
X9393750Y11868750D02*
X9506250Y11756250D01*
X9506250Y11756250D02*
X9618750Y11643750D01*
X9618750Y11643750D02*
X9731250Y11531250D01*
X9731250Y11531250D02*
X9843750Y11418750D01*
X9843750Y11418750D02*
X9843750Y11306250D01*
X9843750Y11306250D02*
X9956250Y11193750D01*
X9956250Y11193750D02*
X10068750Y11081250D01*
X10068750Y11081250D02*
X10181250Y10968750D01*
X10181250Y10968750D02*
X10293750Y10968750D01*
X10293750Y10968750D02*
X10406250Y10968750D01*
X10406250Y10968750D02*
X10518750Y10968750D01*
X10518750Y10968750D02*
X10631250Y10968750D01*
X10631250Y10968750D02*
X10743750Y10968750D01*
X10743750Y10968750D02*
X10856250Y10968750D01*
X10856250Y10968750D02*
X10968750Y10968750D01*
X10968750Y10968750D02*
X11081250Y10968750D01*
X11081250Y10968750D02*
X11193750Y10856250D01*
X11193750Y10856250D02*
X11306250Y10856250D01*
X11306250Y10856250D02*
X11418750Y10743750D01*
X11418750Y10743750D02*
X11531250Y10743750D01*
X11531250Y10743750D02*
X11643750Y10631250D01*
X11643750Y10631250D02*
X11756250Y10631250D01*
X11756250Y10631250D02*
X11868750Y10518750D01*
X11868750Y10518750D02*
X11981250Y10518750D01*
X11981250Y10518750D02*
X12093750Y10406250D01*
X12093750Y10406250D02*
X12206250Y10293750D01*
X12206250Y10293750D02*
X12318750Y10181250D01*
X12318750Y10181250D02*
X12431250Y10068750D01*
X12431250Y10068750D02*
X12543750Y9956250D01*
X12543750Y9956250D02*
X12656250Y9843750D01*
X13556250Y17943750D02*
X13443750Y18056250D01*
X13443750Y18056250D02*
X13331250Y18168750D01*
X13331250Y18168750D02*
X13218750Y18281250D01*
X13218750Y18281250D02*
X13106250Y18393750D01*
X13106250Y18393750D02*
X12993750Y18506250D01*
X12993750Y18506250D02*
X12881250Y18618750D01*
X12881250Y18618750D02*
X12768750Y18731250D01*
X12768750Y18731250D02*
X12656250Y18843750D01*
X12656250Y18843750D02*
X12543750Y18956250D01*
X12543750Y18956250D02*
X12431250Y19068750D01*
X12431250Y19068750D02*
X12318750Y19181250D01*
X12318750Y19181250D02*
X12206250Y19293750D01*
X12206250Y19293750D02*
X12093750Y19406250D01*
X12093750Y19406250D02*
X11981250Y19518750D01*
X11981250Y19518750D02*
X11868750Y19631250D01*
X11868750Y19631250D02*
X11756250Y19743750D01*
X11756250Y19743750D02*
X11643750Y19856250D01*
X10856250Y18843750D02*
X10968750Y18956250D01*
X10968750Y18956250D02*
X10968750Y19068750D01*
X10968750Y19068750D02*
X10968750Y19181250D01*
X10968750Y19181250D02*
X10968750Y19293750D01*
X10968750Y19293750D02*
X10968750Y19406250D01*
X10968750Y19406250D02*
X10968750Y19518750D01*
X10968750Y19518750D02*
X10968750Y19631250D01*
X10968750Y19631250D02*
X10968750Y19743750D01*
X10968750Y19743750D02*
X10968750Y19856250D01*
X10968750Y19856250D02*
X10968750Y19968750D01*
X10968750Y19968750D02*
X10968750Y20081250D01*
X10968750Y20081250D02*
X10968750Y20193750D01*
X10968750Y20193750D02*
X11081250Y20306250D01*
X11081250Y20306250D02*
X11193750Y20418750D01*
X11193750Y20418750D02*
X11306250Y20531250D01*
X11306250Y20531250D02*
X11418750Y20531250D01*
X11418750Y20531250D02*
X11531250Y20531250D01*
X11531250Y20531250D02*
X11643750Y20531250D01*
X11643750Y20531250D02*
X11756250Y20531250D01*
X11756250Y20531250D02*
X11868750Y20531250D01*
X11868750Y20531250D02*
X11981250Y20531250D01*
X11981250Y20531250D02*
X12093750Y20531250D01*
X12093750Y20531250D02*
X12206250Y20531250D01*
X12206250Y20531250D02*
X12318750Y20531250D01*
X12318750Y20531250D02*
X12431250Y20531250D01*
X12431250Y20531250D02*
X12543750Y20531250D01*
X12543750Y20531250D02*
X12656250Y20531250D01*
X12656250Y20531250D02*
X12768750Y20531250D01*
X12768750Y20531250D02*
X12881250Y20531250D01*
X12881250Y20531250D02*
X12993750Y20531250D01*
X12993750Y20531250D02*
X13106250Y20531250D01*
X13106250Y20531250D02*
X13218750Y20531250D01*
X13218750Y20531250D02*
X13331250Y20531250D01*
X13331250Y20531250D02*
X13443750Y20531250D01*
X13443750Y20531250D02*
X13556250Y20531250D01*
X13556250Y20531250D02*
X13668750Y20531250D01*
X13668750Y20531250D02*
X13781250Y20531250D01*
X13781250Y20531250D02*
X13893750Y20531250D01*
X13893750Y20531250D02*
X14006250Y20531250D01*
X14006250Y20531250D02*
X14118750Y20531250D01*
X14118750Y20531250D02*
X14231250Y20531250D01*
X14231250Y20531250D02*
X14343750Y20531250D01*
X14343750Y20531250D02*
X14456250Y20531250D01*
X14456250Y20531250D02*
X14568750Y20531250D01*
X14568750Y20531250D02*
X14681250Y20418750D01*
X14681250Y20418750D02*
X14793750Y20306250D01*
X14793750Y20306250D02*
X14906250Y20193750D01*
X14906250Y20193750D02*
X15018750Y20081250D01*
X15018750Y20081250D02*
X15131250Y19968750D01*
X15131250Y19968750D02*
X15243750Y19856250D01*
X15243750Y19856250D02*
X15356250Y19743750D01*
X15356250Y19743750D02*
X15468750Y19631250D01*
X15468750Y19631250D02*
X15581250Y19518750D01*
X15581250Y19518750D02*
X15693750Y19406250D01*
X15693750Y19406250D02*
X15806250Y19293750D01*
X15806250Y19293750D02*
X15918750Y19181250D01*
X15918750Y19181250D02*
X16031250Y19068750D01*
X16031250Y19068750D02*
X16143750Y19068750D01*
X16143750Y19068750D02*
X16256250Y19068750D01*
X16256250Y19068750D02*
X16368750Y18956250D01*
X16368750Y18956250D02*
X16481250Y18956250D01*
X16481250Y18956250D02*
X16593750Y18843750D01*
X16593750Y18843750D02*
X16706250Y18843750D01*
X16706250Y18843750D02*
X16818750Y18731250D01*
X16818750Y18731250D02*
X16931250Y18731250D01*
X16931250Y18731250D02*
X17043750Y18618750D01*
X17043750Y18618750D02*
X17156250Y18618750D01*
X17156250Y18618750D02*
X17268750Y18506250D01*
%LPD*%
D11*
X16500000Y800000D02*
X17050000Y800000D01*
X18550000Y800000D02*
X19100000Y800000D01*
X17800000Y-500000D02*
X17800000Y50000D01*
X24900000Y800000D02*
X25450000Y800000D01*
X26950000Y800000D02*
X27500000Y800000D01*
X26200000Y-500000D02*
X26200000Y50000D01*
X33800000Y21458700D02*
X34350000Y21458700D01*
X35950000Y21458700D02*
X36500000Y21458700D01*
D16*
X17800000Y800000D03*
X26200000Y800000D03*
D17*
X35150000Y23998700D03*
X35150000Y21458700D03*
X35150000Y18918700D03*
X1173344Y2179674D03*
X1173344Y4719674D03*
X1173344Y7259674D03*
X1173344Y9799674D03*
X1173344Y12339674D03*
X1173344Y14879674D03*
X1173344Y17419674D03*
X1173344Y19959674D03*
X1173344Y22499674D03*
X1173344Y25039674D03*
X11431944Y28708792D03*
X13971944Y28708792D03*
X16511944Y28708792D03*
X19051944Y28708792D03*
X21591944Y28708792D03*
X24131944Y28708792D03*
X26671944Y28708792D03*
X29211944Y28708792D03*
X31751944Y28708792D03*
X34291944Y28708792D03*
D19*
X20200000Y9500000D03*
X21975000Y18100000D03*
X22513900Y17350000D03*
X13486100Y14800000D03*
X13486100Y13950000D03*
X13486100Y15650000D03*
X13486100Y13150000D03*
X15613900Y12700000D03*
X15613900Y13550000D03*
X15613900Y15200000D03*
X15613900Y14400000D03*
X15613900Y15900000D03*
X20600000Y19513900D03*
X19700000Y19513900D03*
X19350000Y17386100D03*
X19150000Y19513900D03*
X16850000Y17386100D03*
X18750000Y17386100D03*
X20200000Y17386100D03*
X18250000Y10486100D03*
X16200000Y12613900D03*
X20300000Y12613900D03*
X17800000Y20500000D03*
X23500000Y12800000D03*
X20193750Y1406250D03*
X18168750Y1968750D03*
X23793750Y1406250D03*
X25818750Y1968750D03*
X10518750Y11643750D03*
X12093750Y16368750D03*
X3318750Y14906250D03*
X7706250Y17381250D03*
X6243750Y17831250D03*
X19406250Y25031250D03*
X18843750Y9281250D03*
X23118750Y18731250D03*
X22893750Y25706250D03*
X22106250Y1968750D03*
X22443750Y2756250D03*
X21206250Y1968750D03*
X21093750Y2756250D03*
X9168750Y15693750D03*
X5006250Y16931250D03*
X13331250Y9168750D03*
X18281250Y12093750D03*
X4668750Y20081250D03*
X7481250Y15356250D03*
X7143750Y14118750D03*
X12656250Y9843750D03*
X13556250Y17943750D03*
X11643750Y19856250D03*
X10856250Y18843750D03*
X17268750Y18506250D03*
X27093846Y7760994D03*
X34088846Y7710994D03*
X32415191Y14411316D03*
X15276239Y23575640D03*
X23885041Y23704474D03*
X26196549Y20663763D03*
X26406410Y23618368D03*
X12305000Y12400000D03*
X20077692Y23415008D03*
X17986677Y24350860D03*
X29506961Y21500263D03*
X12555062Y22822587D03*
X5742097Y12758781D03*
X8609214Y8363254D03*
X8665945Y13520359D03*
X17840512Y17751173D03*
X18824885Y12299618D03*
X15541782Y12319674D03*
D18*
X20193750Y1406250D02*
X20081250Y1518750D01*
X20081250Y1518750D02*
X19968750Y1631250D01*
X19968750Y1631250D02*
X19856250Y1743750D01*
X19856250Y1743750D02*
X19743750Y1856250D01*
X19743750Y1856250D02*
X19631250Y1856250D01*
X19631250Y1856250D02*
X19518750Y1856250D01*
X19518750Y1856250D02*
X19406250Y1856250D01*
X19406250Y1856250D02*
X19293750Y1856250D01*
X19293750Y1856250D02*
X19181250Y1856250D01*
X19181250Y1856250D02*
X19068750Y1856250D01*
X19068750Y1856250D02*
X18956250Y1856250D01*
X18956250Y1856250D02*
X18843750Y1856250D01*
X18843750Y1856250D02*
X18731250Y1856250D01*
X18731250Y1856250D02*
X18618750Y1968750D01*
X18618750Y1968750D02*
X18506250Y1968750D01*
X18506250Y1968750D02*
X18393750Y1968750D01*
X18393750Y1968750D02*
X18281250Y1968750D01*
X18281250Y1968750D02*
X18168750Y1968750D01*
X23793750Y1406250D02*
X23906250Y1518750D01*
X23906250Y1518750D02*
X24018750Y1631250D01*
X24018750Y1631250D02*
X24131250Y1743750D01*
X24131250Y1743750D02*
X24243750Y1856250D01*
X24243750Y1856250D02*
X24356250Y1856250D01*
X24356250Y1856250D02*
X24468750Y1856250D01*
X24468750Y1856250D02*
X24581250Y1856250D01*
X24581250Y1856250D02*
X24693750Y1856250D01*
X24693750Y1856250D02*
X24806250Y1856250D01*
X24806250Y1856250D02*
X24918750Y1856250D01*
X24918750Y1856250D02*
X25031250Y1856250D01*
X25031250Y1856250D02*
X25143750Y1856250D01*
X25143750Y1856250D02*
X25256250Y1856250D01*
X25256250Y1856250D02*
X25368750Y1968750D01*
X25368750Y1968750D02*
X25481250Y1968750D01*
X25481250Y1968750D02*
X25593750Y1968750D01*
X25593750Y1968750D02*
X25706250Y1968750D01*
X25706250Y1968750D02*
X25818750Y1968750D01*
X15581250Y13556250D02*
X15468750Y13556250D01*
X15468750Y13556250D02*
X15356250Y13443750D01*
X15356250Y13443750D02*
X15243750Y13443750D01*
X15243750Y13443750D02*
X15131250Y13331250D01*
X15131250Y13331250D02*
X15018750Y13218750D01*
X15018750Y13218750D02*
X14906250Y13106250D01*
X14906250Y13106250D02*
X14793750Y12993750D01*
X14793750Y12993750D02*
X14681250Y12881250D01*
X14681250Y12881250D02*
X14568750Y12768750D01*
X14568750Y12768750D02*
X14456250Y12656250D01*
X14456250Y12656250D02*
X14343750Y12543750D01*
X14343750Y12543750D02*
X14231250Y12431250D01*
X14231250Y12431250D02*
X14118750Y12318750D01*
X14118750Y12318750D02*
X14006250Y12206250D01*
X14006250Y12206250D02*
X13893750Y12093750D01*
X13893750Y12093750D02*
X13781250Y11981250D01*
X13781250Y11981250D02*
X13668750Y11868750D01*
X13668750Y11868750D02*
X13556250Y11756250D01*
X13556250Y11756250D02*
X13443750Y11756250D01*
X13443750Y11756250D02*
X13331250Y11756250D01*
X13331250Y11756250D02*
X13218750Y11756250D01*
X13218750Y11756250D02*
X13106250Y11756250D01*
X13106250Y11756250D02*
X12993750Y11756250D01*
X12993750Y11756250D02*
X12881250Y11756250D01*
X12881250Y11756250D02*
X12768750Y11756250D01*
X12768750Y11756250D02*
X12656250Y11756250D01*
X12656250Y11756250D02*
X12543750Y11756250D01*
X12543750Y11756250D02*
X12431250Y11756250D01*
X12431250Y11756250D02*
X12318750Y11756250D01*
X12318750Y11756250D02*
X12206250Y11756250D01*
X12206250Y11756250D02*
X12093750Y11756250D01*
X12093750Y11756250D02*
X11981250Y11756250D01*
X11981250Y11756250D02*
X11868750Y11756250D01*
X11868750Y11756250D02*
X11756250Y11756250D01*
X11756250Y11756250D02*
X11643750Y11756250D01*
X11643750Y11756250D02*
X11531250Y11756250D01*
X11531250Y11756250D02*
X11418750Y11756250D01*
X11418750Y11756250D02*
X11306250Y11756250D01*
X11306250Y11756250D02*
X11193750Y11756250D01*
X11193750Y11756250D02*
X11081250Y11756250D01*
X11081250Y11756250D02*
X10968750Y11756250D01*
X10968750Y11756250D02*
X10856250Y11643750D01*
X10856250Y11643750D02*
X10743750Y11643750D01*
X10743750Y11643750D02*
X10631250Y11643750D01*
X10631250Y11643750D02*
X10518750Y11643750D01*
X15581250Y14456250D02*
X15468750Y14456250D01*
X15468750Y14456250D02*
X15356250Y14568750D01*
X15356250Y14568750D02*
X15243750Y14568750D01*
X15243750Y14568750D02*
X15131250Y14681250D01*
X15131250Y14681250D02*
X15018750Y14793750D01*
X15018750Y14793750D02*
X14906250Y14906250D01*
X14906250Y14906250D02*
X14793750Y15018750D01*
X14793750Y15018750D02*
X14681250Y15131250D01*
X14681250Y15131250D02*
X14568750Y15243750D01*
X14568750Y15243750D02*
X14456250Y15356250D01*
X14456250Y15356250D02*
X14343750Y15468750D01*
X14343750Y15468750D02*
X14231250Y15581250D01*
X14231250Y15581250D02*
X14118750Y15693750D01*
X14118750Y15693750D02*
X14118750Y15806250D01*
X14118750Y15806250D02*
X14118750Y15918750D01*
X14118750Y15918750D02*
X14118750Y16031250D01*
X14118750Y16031250D02*
X14006250Y16143750D01*
X14006250Y16143750D02*
X13893750Y16256250D01*
X13893750Y16256250D02*
X13781250Y16368750D01*
X13781250Y16368750D02*
X13668750Y16368750D01*
X13668750Y16368750D02*
X13556250Y16368750D01*
X13556250Y16368750D02*
X13443750Y16368750D01*
X13443750Y16368750D02*
X13331250Y16368750D01*
X13331250Y16368750D02*
X13218750Y16368750D01*
X13218750Y16368750D02*
X13106250Y16368750D01*
X13106250Y16368750D02*
X12993750Y16368750D01*
X12993750Y16368750D02*
X12881250Y16368750D01*
X12881250Y16368750D02*
X12768750Y16368750D01*
X12768750Y16368750D02*
X12656250Y16368750D01*
X12656250Y16368750D02*
X12543750Y16368750D01*
X12543750Y16368750D02*
X12431250Y16368750D01*
X12431250Y16368750D02*
X12318750Y16368750D01*
X12318750Y16368750D02*
X12206250Y16368750D01*
X12206250Y16368750D02*
X12093750Y16368750D01*
X13443750Y14793750D02*
X13331250Y14793750D01*
X13331250Y14793750D02*
X13218750Y14793750D01*
X13218750Y14793750D02*
X13106250Y14793750D01*
X13106250Y14793750D02*
X12993750Y14793750D01*
X12993750Y14793750D02*
X12881250Y14793750D01*
X12881250Y14793750D02*
X12768750Y14793750D01*
X12768750Y14793750D02*
X12656250Y14793750D01*
X12656250Y14793750D02*
X12543750Y14793750D01*
X12543750Y14793750D02*
X12431250Y14793750D01*
X12431250Y14793750D02*
X12318750Y14793750D01*
X12318750Y14793750D02*
X12206250Y14793750D01*
X12206250Y14793750D02*
X12093750Y14793750D01*
X12093750Y14793750D02*
X11981250Y14793750D01*
X11981250Y14793750D02*
X11868750Y14793750D01*
X11868750Y14793750D02*
X11756250Y14793750D01*
X11756250Y14793750D02*
X11643750Y14793750D01*
X11643750Y14793750D02*
X11531250Y14793750D01*
X11531250Y14793750D02*
X11418750Y14793750D01*
X11418750Y14793750D02*
X11306250Y14793750D01*
X11306250Y14793750D02*
X11193750Y14793750D01*
X11193750Y14793750D02*
X11081250Y14793750D01*
X11081250Y14793750D02*
X10968750Y14793750D01*
X10968750Y14793750D02*
X10856250Y14793750D01*
X10856250Y14793750D02*
X10743750Y14793750D01*
X10743750Y14793750D02*
X10631250Y14793750D01*
X10631250Y14793750D02*
X10518750Y14793750D01*
X10518750Y14793750D02*
X10406250Y14793750D01*
X10406250Y14793750D02*
X10293750Y14793750D01*
X10293750Y14793750D02*
X10181250Y14793750D01*
X10181250Y14793750D02*
X10068750Y14793750D01*
X10068750Y14793750D02*
X9956250Y14793750D01*
X9956250Y14793750D02*
X9843750Y14793750D01*
X9843750Y14793750D02*
X9731250Y14793750D01*
X9731250Y14793750D02*
X9618750Y14793750D01*
X9618750Y14793750D02*
X9506250Y14793750D01*
X9506250Y14793750D02*
X9393750Y14793750D01*
X9393750Y14793750D02*
X9281250Y14793750D01*
X9281250Y14793750D02*
X9168750Y14793750D01*
X9168750Y14793750D02*
X9056250Y14793750D01*
X9056250Y14793750D02*
X8943750Y14793750D01*
X8943750Y14793750D02*
X8831250Y14793750D01*
X8831250Y14793750D02*
X8718750Y14793750D01*
X8718750Y14793750D02*
X8606250Y14793750D01*
X8606250Y14793750D02*
X8493750Y14793750D01*
X8493750Y14793750D02*
X8381250Y14793750D01*
X8381250Y14793750D02*
X8268750Y14793750D01*
X8268750Y14793750D02*
X8156250Y14793750D01*
X8156250Y14793750D02*
X8043750Y14793750D01*
X8043750Y14793750D02*
X7931250Y14793750D01*
X7931250Y14793750D02*
X7818750Y14793750D01*
X7818750Y14793750D02*
X7706250Y14793750D01*
X7706250Y14793750D02*
X7593750Y14793750D01*
X7593750Y14793750D02*
X7481250Y14793750D01*
X7481250Y14793750D02*
X7368750Y14793750D01*
X7368750Y14793750D02*
X7256250Y14793750D01*
X7256250Y14793750D02*
X7143750Y14793750D01*
X7143750Y14793750D02*
X7031250Y14793750D01*
X7031250Y14793750D02*
X6918750Y14793750D01*
X6918750Y14793750D02*
X6806250Y14793750D01*
X6806250Y14793750D02*
X6693750Y14793750D01*
X6693750Y14793750D02*
X6581250Y14793750D01*
X6581250Y14793750D02*
X6468750Y14793750D01*
X6468750Y14793750D02*
X6356250Y14793750D01*
X6356250Y14793750D02*
X6243750Y14793750D01*
X6243750Y14793750D02*
X6131250Y14793750D01*
X6131250Y14793750D02*
X6018750Y14793750D01*
X6018750Y14793750D02*
X5906250Y14793750D01*
X5906250Y14793750D02*
X5793750Y14793750D01*
X5793750Y14793750D02*
X5681250Y14793750D01*
X5681250Y14793750D02*
X5568750Y14793750D01*
X5568750Y14793750D02*
X5456250Y14793750D01*
X5456250Y14793750D02*
X5343750Y14793750D01*
X5343750Y14793750D02*
X5231250Y14793750D01*
X5231250Y14793750D02*
X5118750Y14793750D01*
X5118750Y14793750D02*
X5006250Y14793750D01*
X5006250Y14793750D02*
X4893750Y14793750D01*
X4893750Y14793750D02*
X4781250Y14793750D01*
X4781250Y14793750D02*
X4668750Y14793750D01*
X4668750Y14793750D02*
X4556250Y14793750D01*
X4556250Y14793750D02*
X4443750Y14793750D01*
X4443750Y14793750D02*
X4331250Y14793750D01*
X4331250Y14793750D02*
X4218750Y14793750D01*
X4218750Y14793750D02*
X4106250Y14793750D01*
X4106250Y14793750D02*
X3993750Y14793750D01*
X3993750Y14793750D02*
X3881250Y14793750D01*
X3881250Y14793750D02*
X3768750Y14793750D01*
X3768750Y14793750D02*
X3656250Y14793750D01*
X3656250Y14793750D02*
X3543750Y14793750D01*
X3543750Y14793750D02*
X3431250Y14793750D01*
X3431250Y14793750D02*
X3318750Y14906250D01*
X15581250Y15243750D02*
X15468750Y15243750D01*
X15468750Y15243750D02*
X15356250Y15356250D01*
X15356250Y15356250D02*
X15243750Y15356250D01*
X15243750Y15356250D02*
X15131250Y15468750D01*
X15131250Y15468750D02*
X15018750Y15581250D01*
X15018750Y15581250D02*
X14906250Y15693750D01*
X14906250Y15693750D02*
X14793750Y15806250D01*
X14793750Y15806250D02*
X14681250Y15918750D01*
X14681250Y15918750D02*
X14681250Y16031250D01*
X14681250Y16031250D02*
X14681250Y16143750D01*
X14681250Y16143750D02*
X14681250Y16256250D01*
X14681250Y16256250D02*
X14568750Y16368750D01*
X14568750Y16368750D02*
X14456250Y16481250D01*
X14456250Y16481250D02*
X14343750Y16593750D01*
X14343750Y16593750D02*
X14231250Y16706250D01*
X14231250Y16706250D02*
X14118750Y16818750D01*
X14118750Y16818750D02*
X14006250Y16931250D01*
X14006250Y16931250D02*
X13893750Y16931250D01*
X13893750Y16931250D02*
X13781250Y16931250D01*
X13781250Y16931250D02*
X13668750Y16931250D01*
X13668750Y16931250D02*
X13556250Y16931250D01*
X13556250Y16931250D02*
X13443750Y16931250D01*
X13443750Y16931250D02*
X13331250Y16931250D01*
X13331250Y16931250D02*
X13218750Y16931250D01*
X13218750Y16931250D02*
X13106250Y16931250D01*
X13106250Y16931250D02*
X12993750Y16931250D01*
X12993750Y16931250D02*
X12881250Y16931250D01*
X12881250Y16931250D02*
X12768750Y16931250D01*
X12768750Y16931250D02*
X12656250Y16931250D01*
X12656250Y16931250D02*
X12543750Y16931250D01*
X12543750Y16931250D02*
X12431250Y17043750D01*
X12431250Y17043750D02*
X12318750Y17043750D01*
X12318750Y17043750D02*
X12206250Y17043750D01*
X12206250Y17043750D02*
X12093750Y17043750D01*
X12093750Y17043750D02*
X11981250Y17043750D01*
X11981250Y17043750D02*
X11868750Y17043750D01*
X11868750Y17043750D02*
X11756250Y17043750D01*
X11756250Y17043750D02*
X11643750Y17043750D01*
X11643750Y17043750D02*
X11531250Y17043750D01*
X11531250Y17043750D02*
X11418750Y17043750D01*
X11418750Y17043750D02*
X11306250Y17043750D01*
X11306250Y17043750D02*
X11193750Y17043750D01*
X11193750Y17043750D02*
X11081250Y17043750D01*
X11081250Y17043750D02*
X10968750Y17043750D01*
X10968750Y17043750D02*
X10856250Y17043750D01*
X10856250Y17043750D02*
X10743750Y17043750D01*
X10743750Y17043750D02*
X10631250Y17043750D01*
X10631250Y17043750D02*
X10518750Y17043750D01*
X10518750Y17043750D02*
X10406250Y17043750D01*
X10406250Y17043750D02*
X10293750Y17043750D01*
X10293750Y17043750D02*
X10181250Y17043750D01*
X10181250Y17043750D02*
X10068750Y17043750D01*
X10068750Y17043750D02*
X9956250Y17043750D01*
X9956250Y17043750D02*
X9843750Y17043750D01*
X9843750Y17043750D02*
X9731250Y17043750D01*
X9731250Y17043750D02*
X9618750Y17043750D01*
X9618750Y17043750D02*
X9506250Y17043750D01*
X9506250Y17043750D02*
X9393750Y17043750D01*
X9393750Y17043750D02*
X9281250Y17043750D01*
X9281250Y17043750D02*
X9168750Y17043750D01*
X9168750Y17043750D02*
X9056250Y17043750D01*
X9056250Y17043750D02*
X8943750Y17043750D01*
X8943750Y17043750D02*
X8831250Y17043750D01*
X8831250Y17043750D02*
X8718750Y17043750D01*
X8718750Y17043750D02*
X8606250Y17043750D01*
X8606250Y17043750D02*
X8493750Y17043750D01*
X8493750Y17043750D02*
X8381250Y17043750D01*
X8381250Y17043750D02*
X8268750Y17043750D01*
X8268750Y17043750D02*
X8156250Y17043750D01*
X8156250Y17043750D02*
X8043750Y17043750D01*
X8043750Y17043750D02*
X7931250Y17156250D01*
X7931250Y17156250D02*
X7818750Y17268750D01*
X7818750Y17268750D02*
X7706250Y17381250D01*
X13443750Y15693750D02*
X13331250Y15693750D01*
X13331250Y15693750D02*
X13218750Y15693750D01*
X13218750Y15693750D02*
X13106250Y15693750D01*
X13106250Y15693750D02*
X12993750Y15693750D01*
X12993750Y15693750D02*
X12881250Y15693750D01*
X12881250Y15693750D02*
X12768750Y15693750D01*
X12768750Y15693750D02*
X12656250Y15693750D01*
X12656250Y15693750D02*
X12543750Y15693750D01*
X12543750Y15693750D02*
X12431250Y15693750D01*
X12431250Y15693750D02*
X12318750Y15693750D01*
X12318750Y15693750D02*
X12206250Y15693750D01*
X12206250Y15693750D02*
X12093750Y15693750D01*
X12093750Y15693750D02*
X11981250Y15693750D01*
X11981250Y15693750D02*
X11868750Y15693750D01*
X11868750Y15693750D02*
X11756250Y15693750D01*
X11756250Y15693750D02*
X11643750Y15693750D01*
X11643750Y15693750D02*
X11531250Y15693750D01*
X11531250Y15693750D02*
X11418750Y15693750D01*
X11418750Y15693750D02*
X11306250Y15693750D01*
X11306250Y15693750D02*
X11193750Y15693750D01*
X11193750Y15693750D02*
X11081250Y15693750D01*
X11081250Y15693750D02*
X10968750Y15693750D01*
X10968750Y15693750D02*
X10856250Y15693750D01*
X10856250Y15693750D02*
X10743750Y15693750D01*
X10743750Y15693750D02*
X10631250Y15693750D01*
X10631250Y15693750D02*
X10518750Y15693750D01*
X10518750Y15693750D02*
X10406250Y15806250D01*
X10406250Y15806250D02*
X10293750Y15806250D01*
X10293750Y15806250D02*
X10181250Y15918750D01*
X10181250Y15918750D02*
X10068750Y15918750D01*
X10068750Y15918750D02*
X9956250Y16031250D01*
X9956250Y16031250D02*
X9843750Y16031250D01*
X9843750Y16031250D02*
X9731250Y16031250D01*
X9731250Y16031250D02*
X9618750Y16143750D01*
X9618750Y16143750D02*
X9506250Y16143750D01*
X9506250Y16143750D02*
X9393750Y16256250D01*
X9393750Y16256250D02*
X9281250Y16256250D01*
X9281250Y16256250D02*
X9168750Y16368750D01*
X9168750Y16368750D02*
X9056250Y16368750D01*
X9056250Y16368750D02*
X8943750Y16481250D01*
X8943750Y16481250D02*
X8831250Y16481250D01*
X8831250Y16481250D02*
X8718750Y16481250D01*
X8718750Y16481250D02*
X8606250Y16481250D01*
X8606250Y16481250D02*
X8493750Y16481250D01*
X8493750Y16481250D02*
X8381250Y16481250D01*
X8381250Y16481250D02*
X8268750Y16481250D01*
X8268750Y16481250D02*
X8156250Y16481250D01*
X8156250Y16481250D02*
X8043750Y16481250D01*
X8043750Y16481250D02*
X7931250Y16481250D01*
X7931250Y16481250D02*
X7818750Y16481250D01*
X7818750Y16481250D02*
X7706250Y16593750D01*
X7706250Y16593750D02*
X7593750Y16593750D01*
X7593750Y16593750D02*
X7481250Y16593750D01*
X7481250Y16593750D02*
X7368750Y16706250D01*
X7368750Y16706250D02*
X7256250Y16818750D01*
X7256250Y16818750D02*
X7143750Y16931250D01*
X7143750Y16931250D02*
X7031250Y17043750D01*
X7031250Y17043750D02*
X6918750Y17156250D01*
X6918750Y17156250D02*
X6806250Y17268750D01*
X6806250Y17268750D02*
X6693750Y17381250D01*
X6693750Y17381250D02*
X6581250Y17493750D01*
X6581250Y17493750D02*
X6468750Y17606250D01*
X6468750Y17606250D02*
X6356250Y17718750D01*
X6356250Y17718750D02*
X6243750Y17831250D01*
X20643750Y19518750D02*
X20643750Y19631250D01*
X20643750Y19631250D02*
X20531250Y19743750D01*
X20531250Y19743750D02*
X20531250Y19856250D01*
X20531250Y19856250D02*
X20418750Y19968750D01*
X20418750Y19968750D02*
X20306250Y20081250D01*
X20306250Y20081250D02*
X20193750Y20193750D01*
X20193750Y20193750D02*
X20081250Y20306250D01*
X20081250Y20306250D02*
X19968750Y20418750D01*
X19968750Y20418750D02*
X19856250Y20531250D01*
X19856250Y20531250D02*
X19743750Y20643750D01*
X19743750Y20643750D02*
X19631250Y20756250D01*
X19631250Y20756250D02*
X19631250Y20868750D01*
X19631250Y20868750D02*
X19631250Y20981250D01*
X19631250Y20981250D02*
X19631250Y21093750D01*
X19631250Y21093750D02*
X19631250Y21206250D01*
X19631250Y21206250D02*
X19631250Y21318750D01*
X19631250Y21318750D02*
X19631250Y21431250D01*
X19631250Y21431250D02*
X19631250Y21543750D01*
X19631250Y21543750D02*
X19631250Y21656250D01*
X19631250Y21656250D02*
X19631250Y21768750D01*
X19631250Y21768750D02*
X19631250Y21881250D01*
X19631250Y21881250D02*
X19518750Y21993750D01*
X19518750Y21993750D02*
X19518750Y22106250D01*
X19518750Y22106250D02*
X19406250Y22218750D01*
X19406250Y22218750D02*
X19406250Y22331250D01*
X19406250Y22331250D02*
X19406250Y22443750D01*
X19406250Y22443750D02*
X19406250Y22556250D01*
X19406250Y22556250D02*
X19406250Y22668750D01*
X19406250Y22668750D02*
X19406250Y22781250D01*
X19406250Y22781250D02*
X19406250Y22893750D01*
X19406250Y22893750D02*
X19406250Y23006250D01*
X19406250Y23006250D02*
X19406250Y23118750D01*
X19406250Y23118750D02*
X19406250Y23231250D01*
X19406250Y23231250D02*
X19406250Y23343750D01*
X19406250Y23343750D02*
X19406250Y23456250D01*
X19406250Y23456250D02*
X19406250Y23568750D01*
X19406250Y23568750D02*
X19406250Y23681250D01*
X19406250Y23681250D02*
X19406250Y23793750D01*
X19406250Y23793750D02*
X19406250Y23906250D01*
X19406250Y23906250D02*
X19406250Y24018750D01*
X19406250Y24018750D02*
X19406250Y24131250D01*
X19406250Y24131250D02*
X19406250Y24243750D01*
X19406250Y24243750D02*
X19406250Y24356250D01*
X19406250Y24356250D02*
X19406250Y24468750D01*
X19406250Y24468750D02*
X19406250Y24581250D01*
X19406250Y24581250D02*
X19406250Y24693750D01*
X19406250Y24693750D02*
X19406250Y24806250D01*
X19406250Y24806250D02*
X19406250Y24918750D01*
X19406250Y24918750D02*
X19406250Y25031250D01*
X18281250Y10518750D02*
X18281250Y10406250D01*
X18281250Y10406250D02*
X18281250Y10293750D01*
X18281250Y10293750D02*
X18281250Y10181250D01*
X18281250Y10181250D02*
X18281250Y10068750D01*
X18281250Y10068750D02*
X18281250Y9956250D01*
X18281250Y9956250D02*
X18281250Y9843750D01*
X18281250Y9843750D02*
X18393750Y9731250D01*
X18393750Y9731250D02*
X18506250Y9618750D01*
X18506250Y9618750D02*
X18618750Y9506250D01*
X18618750Y9506250D02*
X18731250Y9393750D01*
X18731250Y9393750D02*
X18843750Y9281250D01*
X18731250Y17381250D02*
X18843750Y17493750D01*
X18843750Y17493750D02*
X18843750Y17606250D01*
X18843750Y17606250D02*
X18843750Y17718750D01*
X18843750Y17718750D02*
X18843750Y17831250D01*
X18843750Y17831250D02*
X18956250Y17943750D01*
X18956250Y17943750D02*
X19068750Y18056250D01*
X19068750Y18056250D02*
X19181250Y18056250D01*
X19181250Y18056250D02*
X19293750Y18168750D01*
X19293750Y18168750D02*
X19406250Y18281250D01*
X19406250Y18281250D02*
X19518750Y18393750D01*
X19518750Y18393750D02*
X19631250Y18506250D01*
X19631250Y18506250D02*
X19743750Y18618750D01*
X19743750Y18618750D02*
X19856250Y18618750D01*
X19856250Y18618750D02*
X19968750Y18618750D01*
X19968750Y18618750D02*
X20081250Y18618750D01*
X20081250Y18618750D02*
X20193750Y18618750D01*
X20193750Y18618750D02*
X20306250Y18618750D01*
X20306250Y18618750D02*
X20418750Y18618750D01*
X20418750Y18618750D02*
X20531250Y18618750D01*
X20531250Y18618750D02*
X20643750Y18618750D01*
X20643750Y18618750D02*
X20756250Y18618750D01*
X20756250Y18618750D02*
X20868750Y18618750D01*
X20868750Y18618750D02*
X20981250Y18618750D01*
X20981250Y18618750D02*
X21093750Y18618750D01*
X21093750Y18618750D02*
X21206250Y18731250D01*
X21206250Y18731250D02*
X21318750Y18731250D01*
X21318750Y18731250D02*
X21431250Y18731250D01*
X21431250Y18731250D02*
X21543750Y18731250D01*
X21543750Y18731250D02*
X21656250Y18731250D01*
X21656250Y18731250D02*
X21768750Y18731250D01*
X21768750Y18731250D02*
X21881250Y18731250D01*
X21881250Y18731250D02*
X21993750Y18731250D01*
X21993750Y18731250D02*
X22106250Y18731250D01*
X22106250Y18731250D02*
X22218750Y18731250D01*
X22218750Y18731250D02*
X22331250Y18731250D01*
X22331250Y18731250D02*
X22443750Y18731250D01*
X22443750Y18731250D02*
X22556250Y18731250D01*
X22556250Y18731250D02*
X22668750Y18731250D01*
X22668750Y18731250D02*
X22781250Y18731250D01*
X22781250Y18731250D02*
X22893750Y18731250D01*
X22893750Y18731250D02*
X23006250Y18731250D01*
X23006250Y18731250D02*
X23118750Y18731250D01*
X19181250Y19518750D02*
X19068750Y19406250D01*
X19068750Y19406250D02*
X18956250Y19293750D01*
X18956250Y19293750D02*
X18843750Y19181250D01*
X18843750Y19181250D02*
X18731250Y19181250D01*
X18731250Y19181250D02*
X18618750Y19181250D01*
X18618750Y19181250D02*
X18506250Y19181250D01*
X18506250Y19181250D02*
X18393750Y19181250D01*
X18393750Y19181250D02*
X18281250Y19181250D01*
X18281250Y19181250D02*
X18168750Y19181250D01*
X18168750Y19181250D02*
X18056250Y19181250D01*
X18056250Y19181250D02*
X17943750Y19181250D01*
X17943750Y19181250D02*
X17831250Y19181250D01*
X17831250Y19181250D02*
X17718750Y19181250D01*
X17718750Y19181250D02*
X17606250Y19181250D01*
X17606250Y19181250D02*
X17493750Y19181250D01*
X17493750Y19181250D02*
X17381250Y19293750D01*
X17381250Y19293750D02*
X17268750Y19406250D01*
X17268750Y19406250D02*
X17156250Y19518750D01*
X17156250Y19518750D02*
X17156250Y19631250D01*
X17156250Y19631250D02*
X17156250Y19743750D01*
X17156250Y19743750D02*
X17156250Y19856250D01*
X17156250Y19856250D02*
X17156250Y19968750D01*
X17156250Y19968750D02*
X17156250Y20081250D01*
X17156250Y20081250D02*
X17156250Y20193750D01*
X17156250Y20193750D02*
X17156250Y20306250D01*
X17156250Y20306250D02*
X17156250Y20418750D01*
X17156250Y20418750D02*
X17156250Y20531250D01*
X17156250Y20531250D02*
X17156250Y20643750D01*
X17156250Y20643750D02*
X17156250Y20756250D01*
X17156250Y20756250D02*
X17156250Y20868750D01*
X17156250Y20868750D02*
X17156250Y20981250D01*
X17156250Y20981250D02*
X17156250Y21093750D01*
X17156250Y21093750D02*
X17156250Y21206250D01*
X17156250Y21206250D02*
X17156250Y21318750D01*
X17156250Y21318750D02*
X17156250Y21431250D01*
X17156250Y21431250D02*
X17156250Y21543750D01*
X17156250Y21543750D02*
X17156250Y21656250D01*
X17156250Y21656250D02*
X17156250Y21768750D01*
X17156250Y21768750D02*
X17156250Y21881250D01*
X17156250Y21881250D02*
X17156250Y21993750D01*
X17156250Y21993750D02*
X17156250Y22106250D01*
X17156250Y22106250D02*
X17156250Y22218750D01*
X17156250Y22218750D02*
X17156250Y22331250D01*
X17156250Y22331250D02*
X17156250Y22443750D01*
X17156250Y22443750D02*
X17156250Y22556250D01*
X17156250Y22556250D02*
X17156250Y22668750D01*
X17156250Y22668750D02*
X17156250Y22781250D01*
X17156250Y22781250D02*
X17156250Y22893750D01*
X17156250Y22893750D02*
X17156250Y23006250D01*
X17156250Y23006250D02*
X17156250Y23118750D01*
X17156250Y23118750D02*
X17156250Y23231250D01*
X17156250Y23231250D02*
X17156250Y23343750D01*
X17156250Y23343750D02*
X17156250Y23456250D01*
X17156250Y23456250D02*
X17156250Y23568750D01*
X17156250Y23568750D02*
X17268750Y23681250D01*
X17268750Y23681250D02*
X17381250Y23793750D01*
X17381250Y23793750D02*
X17493750Y23906250D01*
X17493750Y23906250D02*
X17606250Y24018750D01*
X17606250Y24018750D02*
X17718750Y24131250D01*
X17718750Y24131250D02*
X17831250Y24243750D01*
X17831250Y24243750D02*
X17943750Y24356250D01*
X17943750Y24356250D02*
X18056250Y24468750D01*
X18056250Y24468750D02*
X18168750Y24581250D01*
X18168750Y24581250D02*
X18281250Y24693750D01*
X18281250Y24693750D02*
X18393750Y24806250D01*
X18393750Y24806250D02*
X18506250Y24918750D01*
X18506250Y24918750D02*
X18618750Y25031250D01*
X18618750Y25031250D02*
X18731250Y25143750D01*
X18731250Y25143750D02*
X18731250Y25256250D01*
X18731250Y25256250D02*
X18731250Y25368750D01*
X18731250Y25368750D02*
X18843750Y25481250D01*
X18843750Y25481250D02*
X18956250Y25593750D01*
X18956250Y25593750D02*
X19068750Y25706250D01*
X19068750Y25706250D02*
X19181250Y25706250D01*
X19181250Y25706250D02*
X19293750Y25706250D01*
X19293750Y25706250D02*
X19406250Y25706250D01*
X19406250Y25706250D02*
X19518750Y25706250D01*
X19518750Y25706250D02*
X19631250Y25706250D01*
X19631250Y25706250D02*
X19743750Y25706250D01*
X19743750Y25706250D02*
X19856250Y25706250D01*
X19856250Y25706250D02*
X19968750Y25706250D01*
X19968750Y25706250D02*
X20081250Y25706250D01*
X20081250Y25706250D02*
X20193750Y25706250D01*
X20193750Y25706250D02*
X20306250Y25706250D01*
X20306250Y25706250D02*
X20418750Y25706250D01*
X20418750Y25706250D02*
X20531250Y25706250D01*
X20531250Y25706250D02*
X20643750Y25706250D01*
X20643750Y25706250D02*
X20756250Y25706250D01*
X20756250Y25706250D02*
X20868750Y25706250D01*
X20868750Y25706250D02*
X20981250Y25706250D01*
X20981250Y25706250D02*
X21093750Y25706250D01*
X21093750Y25706250D02*
X21206250Y25706250D01*
X21206250Y25706250D02*
X21318750Y25706250D01*
X21318750Y25706250D02*
X21431250Y25706250D01*
X21431250Y25706250D02*
X21543750Y25706250D01*
X21543750Y25706250D02*
X21656250Y25706250D01*
X21656250Y25706250D02*
X21768750Y25706250D01*
X21768750Y25706250D02*
X21881250Y25706250D01*
X21881250Y25706250D02*
X21993750Y25706250D01*
X21993750Y25706250D02*
X22106250Y25706250D01*
X22106250Y25706250D02*
X22218750Y25706250D01*
X22218750Y25706250D02*
X22331250Y25706250D01*
X22331250Y25706250D02*
X22443750Y25706250D01*
X22443750Y25706250D02*
X22556250Y25706250D01*
X22556250Y25706250D02*
X22668750Y25706250D01*
X22668750Y25706250D02*
X22781250Y25706250D01*
X22781250Y25706250D02*
X22893750Y25706250D01*
X22106250Y1968750D02*
X22218750Y2081250D01*
X22218750Y2081250D02*
X22218750Y2193750D01*
X22218750Y2193750D02*
X22218750Y2306250D01*
X22218750Y2306250D02*
X22218750Y2418750D01*
X22218750Y2418750D02*
X22331250Y2531250D01*
X22331250Y2531250D02*
X22331250Y2643750D01*
X22331250Y2643750D02*
X22443750Y2756250D01*
X21206250Y1968750D02*
X21093750Y2081250D01*
X21093750Y2081250D02*
X21093750Y2193750D01*
X21093750Y2193750D02*
X21093750Y2306250D01*
X21093750Y2306250D02*
X21093750Y2418750D01*
X21093750Y2418750D02*
X21093750Y2531250D01*
X21093750Y2531250D02*
X21093750Y2643750D01*
X21093750Y2643750D02*
X21093750Y2756250D01*
X16818750Y17381250D02*
X16706250Y17381250D01*
X16706250Y17381250D02*
X16593750Y17381250D01*
X16593750Y17381250D02*
X16481250Y17381250D01*
X16481250Y17381250D02*
X16368750Y17381250D01*
X16368750Y17381250D02*
X16256250Y17381250D01*
X16256250Y17381250D02*
X16143750Y17381250D01*
X16143750Y17381250D02*
X16031250Y17381250D01*
X16031250Y17381250D02*
X15918750Y17381250D01*
X15918750Y17381250D02*
X15806250Y17381250D01*
X15806250Y17381250D02*
X15693750Y17381250D01*
X15693750Y17381250D02*
X15581250Y17381250D01*
X15581250Y17381250D02*
X15468750Y17381250D01*
X15468750Y17381250D02*
X15356250Y17381250D01*
X15356250Y17381250D02*
X15243750Y17381250D01*
X15243750Y17381250D02*
X15131250Y17381250D01*
X15131250Y17381250D02*
X15018750Y17381250D01*
X15018750Y17381250D02*
X14906250Y17381250D01*
X14906250Y17381250D02*
X14793750Y17381250D01*
X14793750Y17381250D02*
X14681250Y17381250D01*
X14681250Y17381250D02*
X14568750Y17381250D01*
X14568750Y17381250D02*
X14456250Y17381250D01*
X14456250Y17381250D02*
X14343750Y17381250D01*
X14343750Y17381250D02*
X14231250Y17493750D01*
X14231250Y17493750D02*
X14118750Y17493750D01*
X14118750Y17493750D02*
X14006250Y17493750D01*
X14006250Y17493750D02*
X13893750Y17493750D01*
X13893750Y17493750D02*
X13781250Y17493750D01*
X13781250Y17493750D02*
X13668750Y17493750D01*
X13668750Y17493750D02*
X13556250Y17493750D01*
X13556250Y17493750D02*
X13443750Y17493750D01*
X13443750Y17493750D02*
X13331250Y17493750D01*
X13331250Y17493750D02*
X13218750Y17493750D01*
X13218750Y17493750D02*
X13106250Y17493750D01*
X13106250Y17493750D02*
X12993750Y17493750D01*
X12993750Y17493750D02*
X12881250Y17493750D01*
X12881250Y17493750D02*
X12768750Y17493750D01*
X12768750Y17493750D02*
X12656250Y17606250D01*
X12656250Y17606250D02*
X12543750Y17606250D01*
X12543750Y17606250D02*
X12431250Y17606250D01*
X12431250Y17606250D02*
X12318750Y17606250D01*
X12318750Y17606250D02*
X12206250Y17606250D01*
X12206250Y17606250D02*
X12093750Y17606250D01*
X12093750Y17606250D02*
X11981250Y17606250D01*
X11981250Y17606250D02*
X11868750Y17606250D01*
X11868750Y17606250D02*
X11756250Y17606250D01*
X11756250Y17606250D02*
X11643750Y17606250D01*
X11643750Y17606250D02*
X11531250Y17606250D01*
X11531250Y17606250D02*
X11418750Y17606250D01*
X11418750Y17606250D02*
X11306250Y17606250D01*
X11306250Y17606250D02*
X11193750Y17606250D01*
X11193750Y17606250D02*
X11081250Y17606250D01*
X11081250Y17606250D02*
X10968750Y17606250D01*
X10968750Y17606250D02*
X10856250Y17606250D01*
X10856250Y17606250D02*
X10743750Y17606250D01*
X10743750Y17606250D02*
X10631250Y17606250D01*
X10631250Y17606250D02*
X10518750Y17606250D01*
X10518750Y17606250D02*
X10406250Y17606250D01*
X10406250Y17606250D02*
X10293750Y17606250D01*
X10293750Y17606250D02*
X10181250Y17606250D01*
X10181250Y17606250D02*
X10068750Y17606250D01*
X10068750Y17606250D02*
X9956250Y17606250D01*
X9956250Y17606250D02*
X9843750Y17606250D01*
X9843750Y17606250D02*
X9731250Y17606250D01*
X9731250Y17606250D02*
X9618750Y17606250D01*
X9618750Y17606250D02*
X9506250Y17606250D01*
X9506250Y17606250D02*
X9393750Y17606250D01*
X9393750Y17606250D02*
X9281250Y17606250D01*
X9281250Y17606250D02*
X9168750Y17606250D01*
X9168750Y17606250D02*
X9056250Y17606250D01*
X9056250Y17606250D02*
X8943750Y17606250D01*
X8943750Y17606250D02*
X8831250Y17606250D01*
X8831250Y17606250D02*
X8718750Y17606250D01*
X8718750Y17606250D02*
X8606250Y17606250D01*
X8606250Y17606250D02*
X8493750Y17606250D01*
X8493750Y17606250D02*
X8381250Y17718750D01*
X8381250Y17718750D02*
X8268750Y17831250D01*
X8268750Y17831250D02*
X8156250Y17943750D01*
X8156250Y17943750D02*
X8043750Y18056250D01*
X8043750Y18056250D02*
X7931250Y18056250D01*
X7931250Y18056250D02*
X7818750Y18056250D01*
X7818750Y18056250D02*
X7706250Y18056250D01*
X7706250Y18056250D02*
X7593750Y18056250D01*
X7593750Y18056250D02*
X7481250Y18056250D01*
X7481250Y18056250D02*
X7368750Y18056250D01*
X7368750Y18056250D02*
X7256250Y18056250D01*
X7256250Y18056250D02*
X7143750Y18056250D01*
X7143750Y18056250D02*
X7031250Y18056250D01*
X7031250Y18056250D02*
X6918750Y18168750D01*
X6918750Y18168750D02*
X6806250Y18281250D01*
X6806250Y18281250D02*
X6693750Y18393750D01*
X6693750Y18393750D02*
X6581250Y18506250D01*
X6581250Y18506250D02*
X6468750Y18506250D01*
X6468750Y18506250D02*
X6356250Y18506250D01*
X6356250Y18506250D02*
X6243750Y18506250D01*
X6243750Y18506250D02*
X6131250Y18506250D01*
X6131250Y18506250D02*
X6018750Y18506250D01*
X6018750Y18506250D02*
X5906250Y18506250D01*
X5906250Y18506250D02*
X5793750Y18393750D01*
X5793750Y18393750D02*
X5681250Y18281250D01*
X5681250Y18281250D02*
X5568750Y18168750D01*
X5568750Y18168750D02*
X5568750Y18056250D01*
X5568750Y18056250D02*
X5568750Y17943750D01*
X5568750Y17943750D02*
X5568750Y17831250D01*
X5568750Y17831250D02*
X5568750Y17718750D01*
X5568750Y17718750D02*
X5568750Y17606250D01*
X5568750Y17606250D02*
X5568750Y17493750D01*
X5568750Y17493750D02*
X5681250Y17381250D01*
X5681250Y17381250D02*
X5793750Y17268750D01*
X5793750Y17268750D02*
X5906250Y17156250D01*
X5906250Y17156250D02*
X6018750Y17156250D01*
X6018750Y17156250D02*
X6131250Y17156250D01*
X6131250Y17156250D02*
X6243750Y17043750D01*
X6243750Y17043750D02*
X6356250Y16931250D01*
X6356250Y16931250D02*
X6468750Y16818750D01*
X6468750Y16818750D02*
X6581250Y16706250D01*
X6581250Y16706250D02*
X6693750Y16593750D01*
X6693750Y16593750D02*
X6806250Y16481250D01*
X6806250Y16481250D02*
X6918750Y16368750D01*
X6918750Y16368750D02*
X7031250Y16256250D01*
X7031250Y16256250D02*
X7143750Y16143750D01*
X7143750Y16143750D02*
X7256250Y16031250D01*
X7256250Y16031250D02*
X7368750Y16031250D01*
X7368750Y16031250D02*
X7481250Y16031250D01*
X7481250Y16031250D02*
X7593750Y15918750D01*
X7593750Y15918750D02*
X7706250Y15918750D01*
X7706250Y15918750D02*
X7818750Y15918750D01*
X7818750Y15918750D02*
X7931250Y15918750D01*
X7931250Y15918750D02*
X8043750Y15918750D01*
X8043750Y15918750D02*
X8156250Y15918750D01*
X8156250Y15918750D02*
X8268750Y15918750D01*
X8268750Y15918750D02*
X8381250Y15918750D01*
X8381250Y15918750D02*
X8493750Y15918750D01*
X8493750Y15918750D02*
X8606250Y15918750D01*
X8606250Y15918750D02*
X8718750Y15918750D01*
X8718750Y15918750D02*
X8831250Y15806250D01*
X8831250Y15806250D02*
X8943750Y15806250D01*
X8943750Y15806250D02*
X9056250Y15693750D01*
X9056250Y15693750D02*
X9168750Y15693750D01*
X5568750Y17493750D02*
X5456250Y17381250D01*
X5456250Y17381250D02*
X5343750Y17268750D01*
X5343750Y17268750D02*
X5231250Y17156250D01*
X5231250Y17156250D02*
X5118750Y17043750D01*
X5118750Y17043750D02*
X5006250Y16931250D01*
X13331250Y9168750D02*
X13443750Y9281250D01*
X13443750Y9281250D02*
X13556250Y9393750D01*
X13556250Y9393750D02*
X13668750Y9506250D01*
X13668750Y9506250D02*
X13781250Y9618750D01*
X13781250Y9618750D02*
X13893750Y9731250D01*
X13893750Y9731250D02*
X14006250Y9843750D01*
X14006250Y9843750D02*
X14118750Y9956250D01*
X14118750Y9956250D02*
X14231250Y10068750D01*
X14231250Y10068750D02*
X14343750Y10181250D01*
X14343750Y10181250D02*
X14456250Y10293750D01*
X14456250Y10293750D02*
X14568750Y10406250D01*
X14568750Y10406250D02*
X14681250Y10518750D01*
X14681250Y10518750D02*
X14793750Y10631250D01*
X14793750Y10631250D02*
X14906250Y10743750D01*
X14906250Y10743750D02*
X15018750Y10856250D01*
X15018750Y10856250D02*
X15131250Y10968750D01*
X15131250Y10968750D02*
X15243750Y11081250D01*
X15243750Y11081250D02*
X15356250Y11193750D01*
X15356250Y11193750D02*
X15468750Y11306250D01*
X15468750Y11306250D02*
X15581250Y11418750D01*
X15581250Y11418750D02*
X15693750Y11531250D01*
X15693750Y11531250D02*
X15806250Y11643750D01*
X15806250Y11643750D02*
X15918750Y11756250D01*
X15918750Y11756250D02*
X16031250Y11868750D01*
X16031250Y11868750D02*
X16143750Y11981250D01*
X16143750Y11981250D02*
X16256250Y11981250D01*
X16256250Y11981250D02*
X16368750Y11981250D01*
X16368750Y11981250D02*
X16481250Y11981250D01*
X16481250Y11981250D02*
X16593750Y11981250D01*
X16593750Y11981250D02*
X16706250Y11981250D01*
X16706250Y11981250D02*
X16818750Y11981250D01*
X16818750Y11981250D02*
X16931250Y11981250D01*
X16931250Y11981250D02*
X17043750Y11981250D01*
X17043750Y11981250D02*
X17156250Y11981250D01*
X17156250Y11981250D02*
X17268750Y11981250D01*
X17268750Y11981250D02*
X17381250Y11981250D01*
X17381250Y11981250D02*
X17493750Y11981250D01*
X17493750Y11981250D02*
X17606250Y11981250D01*
X17606250Y11981250D02*
X17718750Y11981250D01*
X17718750Y11981250D02*
X17831250Y11981250D01*
X17831250Y11981250D02*
X17943750Y11981250D01*
X17943750Y11981250D02*
X18056250Y11981250D01*
X18056250Y11981250D02*
X18168750Y11981250D01*
X18168750Y11981250D02*
X18281250Y12093750D01*
X4668750Y20081250D02*
X4668750Y19968750D01*
X4668750Y19968750D02*
X4668750Y19856250D01*
X4668750Y19856250D02*
X4668750Y19743750D01*
X4668750Y19743750D02*
X4668750Y19631250D01*
X4668750Y19631250D02*
X4668750Y19518750D01*
X4668750Y19518750D02*
X4668750Y19406250D01*
X4668750Y19406250D02*
X4668750Y19293750D01*
X4668750Y19293750D02*
X4556250Y19181250D01*
X4556250Y19181250D02*
X4556250Y19068750D01*
X4556250Y19068750D02*
X4556250Y18956250D01*
X4556250Y18956250D02*
X4556250Y18843750D01*
X4556250Y18843750D02*
X4556250Y18731250D01*
X4556250Y18731250D02*
X4556250Y18618750D01*
X4556250Y18618750D02*
X4556250Y18506250D01*
X4556250Y18506250D02*
X4556250Y18393750D01*
X4556250Y18393750D02*
X4556250Y18281250D01*
X4556250Y18281250D02*
X4556250Y18168750D01*
X4556250Y18168750D02*
X4556250Y18056250D01*
X4556250Y18056250D02*
X4556250Y17943750D01*
X4556250Y17943750D02*
X4556250Y17831250D01*
X4556250Y17831250D02*
X4556250Y17718750D01*
X4556250Y17718750D02*
X4556250Y17606250D01*
X4556250Y17606250D02*
X4556250Y17493750D01*
X4556250Y17493750D02*
X4443750Y17381250D01*
X4443750Y17381250D02*
X4331250Y17268750D01*
X4331250Y17268750D02*
X4331250Y17156250D01*
X4331250Y17156250D02*
X4331250Y17043750D01*
X4331250Y17043750D02*
X4331250Y16931250D01*
X4331250Y16931250D02*
X4331250Y16818750D01*
X4331250Y16818750D02*
X4331250Y16706250D01*
X4331250Y16706250D02*
X4331250Y16593750D01*
X4331250Y16593750D02*
X4443750Y16481250D01*
X4443750Y16481250D02*
X4556250Y16368750D01*
X4556250Y16368750D02*
X4668750Y16256250D01*
X4668750Y16256250D02*
X4781250Y16143750D01*
X4781250Y16143750D02*
X4893750Y16031250D01*
X4893750Y16031250D02*
X5006250Y15918750D01*
X5006250Y15918750D02*
X5118750Y15806250D01*
X5118750Y15806250D02*
X5231250Y15693750D01*
X5231250Y15693750D02*
X5343750Y15581250D01*
X5343750Y15581250D02*
X5456250Y15468750D01*
X5456250Y15468750D02*
X5568750Y15356250D01*
X5568750Y15356250D02*
X5681250Y15356250D01*
X5681250Y15356250D02*
X5793750Y15356250D01*
X5793750Y15356250D02*
X5906250Y15356250D01*
X5906250Y15356250D02*
X6018750Y15356250D01*
X6018750Y15356250D02*
X6131250Y15356250D01*
X6131250Y15356250D02*
X6243750Y15356250D01*
X6243750Y15356250D02*
X6356250Y15356250D01*
X6356250Y15356250D02*
X6468750Y15356250D01*
X6468750Y15356250D02*
X6581250Y15356250D01*
X6581250Y15356250D02*
X6693750Y15356250D01*
X6693750Y15356250D02*
X6806250Y15356250D01*
X6806250Y15356250D02*
X6918750Y15356250D01*
X6918750Y15356250D02*
X7031250Y15356250D01*
X7031250Y15356250D02*
X7143750Y15356250D01*
X7143750Y15356250D02*
X7256250Y15356250D01*
X7256250Y15356250D02*
X7368750Y15356250D01*
X7368750Y15356250D02*
X7481250Y15356250D01*
X7143750Y14118750D02*
X7256250Y14006250D01*
X7256250Y14006250D02*
X7368750Y13893750D01*
X7368750Y13893750D02*
X7481250Y13781250D01*
X7481250Y13781250D02*
X7593750Y13668750D01*
X7593750Y13668750D02*
X7706250Y13556250D01*
X7706250Y13556250D02*
X7818750Y13443750D01*
X7818750Y13443750D02*
X7931250Y13331250D01*
X7931250Y13331250D02*
X8043750Y13218750D01*
X8043750Y13218750D02*
X8156250Y13106250D01*
X8156250Y13106250D02*
X8268750Y12993750D01*
X8268750Y12993750D02*
X8381250Y12881250D01*
X8381250Y12881250D02*
X8493750Y12768750D01*
X8493750Y12768750D02*
X8606250Y12656250D01*
X8606250Y12656250D02*
X8718750Y12543750D01*
X8718750Y12543750D02*
X8831250Y12431250D01*
X8831250Y12431250D02*
X8943750Y12318750D01*
X8943750Y12318750D02*
X9056250Y12206250D01*
X9056250Y12206250D02*
X9168750Y12093750D01*
X9168750Y12093750D02*
X9281250Y11981250D01*
X9281250Y11981250D02*
X9393750Y11868750D01*
X9393750Y11868750D02*
X9506250Y11756250D01*
X9506250Y11756250D02*
X9618750Y11643750D01*
X9618750Y11643750D02*
X9731250Y11531250D01*
X9731250Y11531250D02*
X9843750Y11418750D01*
X9843750Y11418750D02*
X9843750Y11306250D01*
X9843750Y11306250D02*
X9956250Y11193750D01*
X9956250Y11193750D02*
X10068750Y11081250D01*
X10068750Y11081250D02*
X10181250Y10968750D01*
X10181250Y10968750D02*
X10293750Y10968750D01*
X10293750Y10968750D02*
X10406250Y10968750D01*
X10406250Y10968750D02*
X10518750Y10968750D01*
X10518750Y10968750D02*
X10631250Y10968750D01*
X10631250Y10968750D02*
X10743750Y10968750D01*
X10743750Y10968750D02*
X10856250Y10968750D01*
X10856250Y10968750D02*
X10968750Y10968750D01*
X10968750Y10968750D02*
X11081250Y10968750D01*
X11081250Y10968750D02*
X11193750Y10856250D01*
X11193750Y10856250D02*
X11306250Y10856250D01*
X11306250Y10856250D02*
X11418750Y10743750D01*
X11418750Y10743750D02*
X11531250Y10743750D01*
X11531250Y10743750D02*
X11643750Y10631250D01*
X11643750Y10631250D02*
X11756250Y10631250D01*
X11756250Y10631250D02*
X11868750Y10518750D01*
X11868750Y10518750D02*
X11981250Y10518750D01*
X11981250Y10518750D02*
X12093750Y10406250D01*
X12093750Y10406250D02*
X12206250Y10293750D01*
X12206250Y10293750D02*
X12318750Y10181250D01*
X12318750Y10181250D02*
X12431250Y10068750D01*
X12431250Y10068750D02*
X12543750Y9956250D01*
X12543750Y9956250D02*
X12656250Y9843750D01*
X13556250Y17943750D02*
X13443750Y18056250D01*
X13443750Y18056250D02*
X13331250Y18168750D01*
X13331250Y18168750D02*
X13218750Y18281250D01*
X13218750Y18281250D02*
X13106250Y18393750D01*
X13106250Y18393750D02*
X12993750Y18506250D01*
X12993750Y18506250D02*
X12881250Y18618750D01*
X12881250Y18618750D02*
X12768750Y18731250D01*
X12768750Y18731250D02*
X12656250Y18843750D01*
X12656250Y18843750D02*
X12543750Y18956250D01*
X12543750Y18956250D02*
X12431250Y19068750D01*
X12431250Y19068750D02*
X12318750Y19181250D01*
X12318750Y19181250D02*
X12206250Y19293750D01*
X12206250Y19293750D02*
X12093750Y19406250D01*
X12093750Y19406250D02*
X11981250Y19518750D01*
X11981250Y19518750D02*
X11868750Y19631250D01*
X11868750Y19631250D02*
X11756250Y19743750D01*
X11756250Y19743750D02*
X11643750Y19856250D01*
X10856250Y18843750D02*
X10968750Y18956250D01*
X10968750Y18956250D02*
X10968750Y19068750D01*
X10968750Y19068750D02*
X10968750Y19181250D01*
X10968750Y19181250D02*
X10968750Y19293750D01*
X10968750Y19293750D02*
X10968750Y19406250D01*
X10968750Y19406250D02*
X10968750Y19518750D01*
X10968750Y19518750D02*
X10968750Y19631250D01*
X10968750Y19631250D02*
X10968750Y19743750D01*
X10968750Y19743750D02*
X10968750Y19856250D01*
X10968750Y19856250D02*
X10968750Y19968750D01*
X10968750Y19968750D02*
X10968750Y20081250D01*
X10968750Y20081250D02*
X10968750Y20193750D01*
X10968750Y20193750D02*
X11081250Y20306250D01*
X11081250Y20306250D02*
X11193750Y20418750D01*
X11193750Y20418750D02*
X11306250Y20531250D01*
X11306250Y20531250D02*
X11418750Y20531250D01*
X11418750Y20531250D02*
X11531250Y20531250D01*
X11531250Y20531250D02*
X11643750Y20531250D01*
X11643750Y20531250D02*
X11756250Y20531250D01*
X11756250Y20531250D02*
X11868750Y20531250D01*
X11868750Y20531250D02*
X11981250Y20531250D01*
X11981250Y20531250D02*
X12093750Y20531250D01*
X12093750Y20531250D02*
X12206250Y20531250D01*
X12206250Y20531250D02*
X12318750Y20531250D01*
X12318750Y20531250D02*
X12431250Y20531250D01*
X12431250Y20531250D02*
X12543750Y20531250D01*
X12543750Y20531250D02*
X12656250Y20531250D01*
X12656250Y20531250D02*
X12768750Y20531250D01*
X12768750Y20531250D02*
X12881250Y20531250D01*
X12881250Y20531250D02*
X12993750Y20531250D01*
X12993750Y20531250D02*
X13106250Y20531250D01*
X13106250Y20531250D02*
X13218750Y20531250D01*
X13218750Y20531250D02*
X13331250Y20531250D01*
X13331250Y20531250D02*
X13443750Y20531250D01*
X13443750Y20531250D02*
X13556250Y20531250D01*
X13556250Y20531250D02*
X13668750Y20531250D01*
X13668750Y20531250D02*
X13781250Y20531250D01*
X13781250Y20531250D02*
X13893750Y20531250D01*
X13893750Y20531250D02*
X14006250Y20531250D01*
X14006250Y20531250D02*
X14118750Y20531250D01*
X14118750Y20531250D02*
X14231250Y20531250D01*
X14231250Y20531250D02*
X14343750Y20531250D01*
X14343750Y20531250D02*
X14456250Y20531250D01*
X14456250Y20531250D02*
X14568750Y20531250D01*
X14568750Y20531250D02*
X14681250Y20418750D01*
X14681250Y20418750D02*
X14793750Y20306250D01*
X14793750Y20306250D02*
X14906250Y20193750D01*
X14906250Y20193750D02*
X15018750Y20081250D01*
X15018750Y20081250D02*
X15131250Y19968750D01*
X15131250Y19968750D02*
X15243750Y19856250D01*
X15243750Y19856250D02*
X15356250Y19743750D01*
X15356250Y19743750D02*
X15468750Y19631250D01*
X15468750Y19631250D02*
X15581250Y19518750D01*
X15581250Y19518750D02*
X15693750Y19406250D01*
X15693750Y19406250D02*
X15806250Y19293750D01*
X15806250Y19293750D02*
X15918750Y19181250D01*
X15918750Y19181250D02*
X16031250Y19068750D01*
X16031250Y19068750D02*
X16143750Y19068750D01*
X16143750Y19068750D02*
X16256250Y19068750D01*
X16256250Y19068750D02*
X16368750Y18956250D01*
X16368750Y18956250D02*
X16481250Y18956250D01*
X16481250Y18956250D02*
X16593750Y18843750D01*
X16593750Y18843750D02*
X16706250Y18843750D01*
X16706250Y18843750D02*
X16818750Y18731250D01*
X16818750Y18731250D02*
X16931250Y18731250D01*
X16931250Y18731250D02*
X17043750Y18618750D01*
X17043750Y18618750D02*
X17156250Y18618750D01*
X17156250Y18618750D02*
X17268750Y18506250D01*
M02*
