M48
; pcb PTH drills
FMAT,2
METRIC,LZ,000.000
T1C0.200
T2C0.900
T3C1.000
%
G90
T1
X20.200Y9.500
X21.975Y18.100
X22.514Y17.350
X13.486Y14.800
X13.486Y13.950
X13.486Y15.650
X13.486Y13.150
X15.614Y12.700
X15.614Y13.550
X15.614Y15.200
X15.614Y14.400
X15.614Y15.900
X20.600Y19.514
X19.700Y19.514
X19.350Y17.386
X19.150Y19.514
X16.850Y17.386
X18.750Y17.386
X20.200Y17.386
X18.250Y10.486
X16.200Y12.614
X20.300Y12.614
X17.800Y20.500
X23.500Y12.800
X20.194Y1.406
X18.169Y1.969
X23.794Y1.406
X25.819Y1.969
X10.519Y11.644
X12.094Y16.369
X3.319Y14.906
X7.706Y17.381
X6.244Y17.831
X19.406Y25.031
X18.844Y9.281
X23.119Y18.731
X22.894Y25.706
X22.106Y1.969
X22.444Y2.756
X21.206Y1.969
X21.094Y2.756
X9.169Y15.694
X5.006Y16.931
X13.331Y9.169
X18.281Y12.094
X4.669Y20.081
X7.481Y15.356
X7.144Y14.119
X12.656Y9.844
X13.556Y17.944
X11.644Y19.856
X10.856Y18.844
X17.269Y18.506
X27.094Y7.761
X34.089Y7.711
X32.415Y14.411
X15.276Y23.576
X23.885Y23.704
X26.197Y20.664
X26.406Y23.618
X12.305Y12.400
X20.078Y23.415
X17.987Y24.351
X29.507Y21.500
X12.555Y22.823
X5.742Y12.759
X8.609Y8.363
X8.666Y13.520
X17.841Y17.751
X18.825Y12.300
X15.542Y12.320
T2
X17.800Y0.800
X26.200Y0.800
T3
X35.150Y23.999
X35.150Y21.459
X35.150Y18.919
X1.173Y2.180
X1.173Y4.720
X1.173Y7.260
X1.173Y9.800
X1.173Y12.340
X1.173Y14.880
X1.173Y17.420
X1.173Y19.960
X1.173Y22.500
X1.173Y25.040
X11.432Y28.709
X13.972Y28.709
X16.512Y28.709
X19.052Y28.709
X21.592Y28.709
X24.132Y28.709
X26.672Y28.709
X29.212Y28.709
X31.752Y28.709
X34.292Y28.709
M30
