G04 pcb F.Mask*
%TF.GenerationSoftware,pcb,pcb-gerber,1.1.0*%
%TF.FileFunction,Soldermask,Top*%
%TF.FilePolarity,Positive*%
%FSLAX46Y46*%
%MOMM*%
%LPD*%
%ADD10R,0.800000X1.500000*%
%ADD11R,0.650000X1.500000*%
%ADD12R,0.550000X1.500000*%
%ADD13R,0.500000X1.500000*%
%ADD14R,1.700000X1.700000*%
%ADD15R,1.800000X1.800000*%
%ADD16R,1.650000X0.700000*%
%ADD17R,1.050000X1.300000*%
%ADD18R,1.000000X0.700000*%
%ADD19R,1.050000X1.050000*%
%ADD20R,0.900000X1.100000*%
%ADD21R,1.050000X0.900000*%
%ADD22R,0.600000X0.300000*%
%ADD23R,0.300000X0.600000*%
D10*
X18750000Y1300000D03*
D11*
X19600000Y1300000D03*
D12*
X20450000Y1300000D03*
D13*
X21300000Y1300000D03*
X22000000Y1300000D03*
X22700000Y1300000D03*
D12*
X23550000Y1300000D03*
D11*
X24400000Y1300000D03*
D10*
X25250000Y1300000D03*
D14*
X17800000Y800000D03*
X26200000Y800000D03*
D15*
X35150000Y23998700D03*
X35150000Y21458700D03*
X35150000Y18918700D03*
X1173344Y2179674D03*
X1173344Y4719674D03*
X1173344Y7259674D03*
X1173344Y9799674D03*
X1173344Y12339674D03*
X1173344Y14879674D03*
X1173344Y17419674D03*
X1173344Y19959674D03*
X1173344Y22499674D03*
X1173344Y25039674D03*
X11431944Y28708792D03*
X13971944Y28708792D03*
X16511944Y28708792D03*
X19051944Y28708792D03*
X21591944Y28708792D03*
X24131944Y28708792D03*
X26671944Y28708792D03*
X29211944Y28708792D03*
X31751944Y28708792D03*
X34291944Y28708792D03*
D16*
X13473494Y9823323D03*
X13473494Y8553323D03*
X13473494Y7283323D03*
X13473494Y6013323D03*
X18873494Y9823323D03*
X18873494Y8553323D03*
X18873494Y7283323D03*
X18873494Y6013323D03*
D17*
X10124666Y15379973D03*
X10124666Y17579973D03*
X8424666Y17579973D03*
X8424666Y15379973D03*
D18*
X29093846Y7760994D03*
X29093846Y8710994D03*
X29093846Y9660994D03*
X27093846Y9660994D03*
X27093846Y7760994D03*
D19*
X4140952Y16560362D03*
X5690952Y16560362D03*
X12749649Y16876627D03*
X12749649Y18426627D03*
X23950000Y5995000D03*
X23950000Y7545000D03*
X20981298Y6015334D03*
X20981298Y7565334D03*
X14505000Y1300000D03*
X12955000Y1300000D03*
X28495000Y1300000D03*
X30045000Y1300000D03*
X32616854Y2067970D03*
X34166854Y2067970D03*
X24695000Y12400000D03*
X26245000Y12400000D03*
X29387630Y12808734D03*
X29387630Y14358734D03*
X32538846Y7710994D03*
X34088846Y7710994D03*
X32415191Y14411316D03*
X32415191Y15961316D03*
X15276239Y23575640D03*
X15276239Y25125640D03*
X23885041Y23704474D03*
X23885041Y25254474D03*
X26196549Y20663763D03*
X24646549Y20663763D03*
X26406410Y23618368D03*
X26406410Y25168368D03*
X12305000Y12400000D03*
X10755000Y12400000D03*
X20077692Y23415008D03*
X20077692Y24965008D03*
X17986677Y24350860D03*
X17986677Y22800860D03*
X29506961Y21500263D03*
X29506961Y23050263D03*
X12555062Y22822587D03*
X12555062Y21272587D03*
D20*
X5756738Y21310777D03*
X5756738Y24310777D03*
X7756738Y24310777D03*
X7756738Y21310777D03*
X7750061Y5094410D03*
X7750061Y2094410D03*
X5750061Y2094410D03*
X5750061Y5094410D03*
D19*
X5742097Y12758781D03*
X5742097Y14308781D03*
X8609214Y8363254D03*
X10159214Y8363254D03*
X24618052Y16577497D03*
X26168052Y16577497D03*
X8665945Y13520359D03*
X8665945Y11970359D03*
D21*
X29343071Y16667452D03*
X29343071Y18167452D03*
D19*
X18619004Y20664534D03*
X20169004Y20664534D03*
D22*
X14550000Y12400000D03*
X14550000Y12800000D03*
X14550000Y13200000D03*
X14550000Y13600000D03*
X14550000Y14000000D03*
X14550000Y14400000D03*
X14550000Y14800000D03*
X14550000Y15200000D03*
X14550000Y15600000D03*
X14550000Y16000000D03*
X14550000Y16400000D03*
X14550000Y16800000D03*
X14550000Y17200000D03*
X14550000Y17600000D03*
D23*
X15400000Y18450000D03*
X15800000Y18450000D03*
X16200000Y18450000D03*
X16600000Y18450000D03*
X17000000Y18450000D03*
X17400000Y18450000D03*
X17800000Y18450000D03*
X18200000Y18450000D03*
X18600000Y18450000D03*
X19000000Y18450000D03*
X19400000Y18450000D03*
X19800000Y18450000D03*
X20200000Y18450000D03*
X20600000Y18450000D03*
D22*
X21450000Y17600000D03*
X21450000Y17200000D03*
X21450000Y16800000D03*
X21450000Y16400000D03*
X21450000Y16000000D03*
X21450000Y15600000D03*
X21450000Y15200000D03*
X21450000Y14800000D03*
X21450000Y14400000D03*
X21450000Y14000000D03*
X21450000Y13600000D03*
X21450000Y13200000D03*
X21450000Y12800000D03*
X21450000Y12400000D03*
D23*
X20600000Y11550000D03*
X20200000Y11550000D03*
X19800000Y11550000D03*
X19400000Y11550000D03*
X19000000Y11550000D03*
X18600000Y11550000D03*
X18200000Y11550000D03*
X17800000Y11550000D03*
X17400000Y11550000D03*
X17000000Y11550000D03*
X16600000Y11550000D03*
X16200000Y11550000D03*
X15800000Y11550000D03*
X15400000Y11550000D03*
D14*
X18000000Y15000000D03*
M02*
